<?xml version="1.0" encoding="utf-8"?>
<!-- Generator: Adobe Illustrator 27.0.0, SVG Export Plug-In . SVG Version: 6.00 Build 0)  -->
<svg version="1.1" id="Layer_1" xmlns="http://www.w3.org/2000/svg" xmlns:xlink="http://www.w3.org/1999/xlink" x="0px" y="0px"
	 viewBox="0 0 1229.6 944.2" style="enable-background:new 0 0 1229.6 944.2;" xml:space="preserve">
<style type="text/css">
	.st0{fill:#FFFFFF;}
	.st1{fill:#FF0000;}
</style>
<path class="st0" d="M615.5,88.7c104.3-1.6,206.1,13.6,304.8,47.9c75,26.1,144.6,62.1,204.1,115.6c40,35.9,72.2,77.8,90.4,129
	c21.9,61.4,19.4,122.2-6.7,181.8c-20.8,47.5-53.2,86.2-92.4,119.7c-55.3,47.3-118.6,80.2-186.5,105c-72.3,26.4-147,41.6-223.6,48.5
	c-45.5,4.1-91.1,5.6-136.8,3.3c-111.2-5.6-219.1-26.8-321.1-73c-65.9-29.8-126-68.5-174.5-123.2c-33.4-37.7-58.2-80.2-68.2-130.1
	c-10.4-51.9-5.1-102,16.8-150.4c25.4-56.2,65.8-99.8,114.5-136.3c75-56.2,159.9-90.5,250.4-112.6c55.9-13.7,112.6-21.9,170-25
	C576.3,87.8,595.9,88.7,615.5,88.7z M604.1,100.6c-30.5,0.4-72.6,2.6-114.5,8c-76.4,9.8-150.3,28.2-221.2,58.6
	c-51.1,21.9-98.9,49.2-141.5,85.1C83.3,289,47.6,331.6,27.6,385.8C8.2,438.6,8.6,491.5,28.5,544c20.4,54,56.5,96.6,100.2,132.9
	c46.9,38.9,99.8,67.8,156.3,90.3c49.9,19.8,101.4,33.9,154,44c46.2,8.8,93,13.5,139.9,15.2c28.2,1.1,56.5-0.3,84.8-1.2
	c68.5-2.3,135.8-13.1,201.8-31.6c80.2-22.5,155.6-55.2,222-106.5c38.2-29.5,71.5-63.5,95.5-105.8c39.1-68.9,44-139.9,11.5-212.7
	c-18.8-42.1-47.6-76.7-81.6-107.2c-56.6-50.7-122.7-85.2-193.7-110.6C821.2,115.8,719.6,100.8,604.1,100.6z"/>
<path class="st0" d="M370.2,292.6c14-4,26.2-2.5,38.7,4.8c110.8,64.6,222,128.7,333,192.8c49.7,28.7,99.5,57.3,149.1,86.1
	c21.5,12.4,44.6,20.5,69.3,20.3c32.7-0.2,62.7-10.3,87.2-32.7c40.9-37.3,56.4-83.5,40.9-137c-15.5-53.3-52.7-86-107.2-94.7
	c-76.6-12.1-137.8,41.1-150.2,104.6c-1.1,5.5-2.1,11-3.5,18.2c-4.9-2.6-8.9-4.8-13.1-7.1c3-30.1,13.7-56.2,32.8-78.7
	c30.2-35.6,68.8-53.9,115.5-53.5c82.8,0.8,141.8,66.7,145.6,137.5c4.2,77.6-46.5,142.8-122.7,155.8c-35.5,6-69.2-0.8-100.5-18.9
	c-60.6-35-121.2-70.1-181.8-105.1c-106.9-61.8-213.9-123.5-320.8-185.3C378.3,297.6,374.3,295.1,370.2,292.6z"/>
<path class="st0" d="M858.5,634.6c-13.5,4-25.3,2.7-37.5-4.4c-148.2-86.1-296.7-171.7-445.1-257.4c-13.6-7.8-27-15.9-40.8-23.4
	c-49.3-26.6-97.7-25.5-144,6.7c-44,30.6-65.2,86.8-52.1,139.2c13,51.9,56.6,92.4,108.8,99.9c72.7,10.4,137.5-36,151.2-108.4
	c0.9-4.6,1.8-9.1,3-15c4.9,2.9,8.8,5.3,13.1,7.8c-5.7,46.2-27.2,82.2-65.1,107.4c-84.4,56.1-198.5,12.6-224.7-85.2
	c-23.8-89,39-177.6,130.7-184.9c32.4-2.6,62,5.2,89.8,21.3c79.1,45.7,158.3,91.3,237.4,136.9c88.9,51.3,177.8,102.7,266.7,154.1
	C852.8,631,855.7,632.8,858.5,634.6z"/>
<path class="st0" d="M463.7,290.2c15.7-1.2,27.9-0.6,40.6,6.7c136.5,79.3,273.4,158,410,237.1c33,19.1,65.3,19.6,96.7-2.6
	c31.1-21.9,42.8-63,28.9-98.9c-12.9-33.6-49.5-56.8-84.6-53.6c-39.5,3.6-71.2,31.9-77,70c-1.7,10.9-0.3,22.3-0.3,35.6
	c-5.5-3-9.8-5.4-14.8-8.1c-3.7-20.8,0-40.4,9.7-59c21-40.5,67.7-61.6,111.4-50.7c45.2,11.2,77.1,50.8,76.4,96.9
	c-1.2,78.1-81.5,122.1-146.1,87.7c-39.1-20.9-77-44-115.5-66.2c-87.4-50.4-174.8-100.9-262.2-151.4c-21.5-12.4-43-24.8-64.4-37.2
	C470.1,295,467.8,293.2,463.7,290.2z"/>
<path class="st0" d="M761.8,636.8c-12.6,1.8-24.2,1.1-36-5.8c-136.9-79.5-274-158.6-411-237.9c-29.5-17.1-59-19-89.1-2
	c-31.2,17.6-48.3,55.8-40.2,90.3c8.8,37.8,40.1,65.1,77.1,67c48.7,2.5,89-34.3,90.5-82.9c0.2-6.8-1.1-13.7-1.8-22.4
	c5.6,3,10,5.3,15,8c4.1,25.2-1.3,48.5-15.9,69.1c-23.8,33.5-57,48.4-97.5,41.9c-41-6.5-68.4-31-80.2-71.1
	c-18.4-62.3,28.6-125.1,93.4-126.1c19.8-0.3,37.7,4.5,54.7,14.4C458.4,458.9,596.3,538.5,734.2,618c9.3,5.4,18.7,10.8,28,16.2
	C762.1,635.1,761.9,635.9,761.8,636.8z"/>
<path class="st1" d="M718.1,631c-18.6,10.7-35,20.1-53.3,30.7c0-20.8,0-38.9,0-59.6c-18.2,10.3-34.6,19.5-52.9,29.8
	c0-20.2,0-38.5,0-59.1c-18.2,10.3-34.2,19.3-52.2,29.5c0-20.9,0-39,0-59.4c-17.5,9.9-33.2,18.8-51.1,28.8c0-20,0-38.4,0-59.2
	c-18.1,10.2-33.9,19.1-49.7,28c-3.5-8.9-4.3-37.9-1.6-58.6c3.7,1.7,7.1,2.9,10.2,4.6c63.3,36.4,126.5,72.9,189.8,109.3
	c16.2,9.3,32.5,18.4,48.7,27.6C709.5,625.4,712.7,627.6,718.1,631z"/>
<path class="st1" d="M721.2,355.3c0,21,0,39.1,0,59.3c17.9-10.1,34-19.1,51.3-28.9c0,20.7,0,39.7,0,60.8
	c-44.7-24.4-87.3-50.1-130.4-74.7c-43-24.5-85.9-49.1-131.2-75c18.5-10.7,35.1-20.4,53.5-31c0,20.3,0,38.3,0,58.7
	c19.1-7.9,34.1-19.7,52.7-28.4c0,19.8,0,37.9,0,58.8c18.2-10.3,34.2-19.3,52-29.4c0,19.8,0,38.2,0,59.5
	C687.1,374.8,702.7,365.9,721.2,355.3z"/>
<path class="st1" d="M1081.8,370.6c-28.8-37.5-67.8-57.4-114.1-59.7c-46-2.3-85.7,15.3-119.9,50c-2.4-23-4.5-43.5-6.9-66.4
	c21.2,9.3,40.1,17.6,60.5,26.5c7-19.8,13.9-39.3,21.6-61c15.1,17,28.9,32.6,43.5,49.2c16.3-15.5,31.9-30.3,48.6-46.1
	c5.6,21.7,10.7,41.3,16.2,62.4c21.1-7,41.1-13.7,63.2-21.1c-4.6,23.5-8.7,45.1-12.9,66.7L1081.8,370.6z"/>
<path class="st1" d="M147.3,558.4c11.2,10.2,21.6,21.5,33.7,30.4c56.5,41.2,137.5,36,188.8-11.3c3.4-3.2,6.9-6.2,11.8-10.6
	c2.3,22.4,4.4,42.9,6.8,66.1c-21.2-9.2-40.1-17.4-60.4-26.2c-7.2,20.1-14.2,39.4-21.8,60.6c-15.1-16.9-28.8-32.2-43.5-48.7
	c-16.1,15.2-31.4,29.7-48.4,45.7c-5.7-21.7-10.9-41.5-16.2-61.7c-21.6,5-40.6,14.7-63,19.5c4.4-22.7,8.5-43.4,12.5-64.2L147.3,558.4
	z"/>
<path class="st1" d="M147.6,558c-21.6-1.6-43.1-3.2-67.3-4.9c12.9-18.8,24.5-35.7,36.7-53.6C97.9,487.9,79.8,477,60,465
	c19.5-11,37.5-21.1,56.8-32c-12.1-18.2-23.6-35.7-36.3-54.9c22.4-1.7,42.5-3.2,64.1-4.9c-2.7,4.7-4.6,8.1-6.5,11.4
	c-31.8,55.8-30.2,110.7,3.9,164.9c1.8,2.9,3.5,5.9,5.3,8.9L147.6,558z"/>
<path class="st1" d="M1081.4,371c2.5-0.5,5.1-1.5,7.6-1.3c19,1.4,38,3.1,58.1,4.8c-3.5,10.6-11,18-16.4,26.4
	c-5.6,8.7-11.7,17.1-18.5,26.8c18.9,11.7,37.2,22.9,56.9,35.1c-19.6,11.1-37.7,21.2-56.7,31.9c12,17.9,23.4,35.2,35,52.5
	c-8.5,3.7-42.6,6.7-61.5,5.5c37.8-61.8,38.5-122.6-4.2-182.1L1081.4,371z"/>
<path class="st0" d="M980.6,463.1c0.2,11.2-8.1,19.7-19.4,19.8c-11.1,0-19.7-8.7-19.7-19.7c0.1-10.4,8.3-18.8,18.9-19.1
	C971.7,443.8,980.4,451.9,980.6,463.1z"/>
<path class="st0" d="M267.9,443.9c14.7,4.2,20.9,11.2,19.7,21.9c-1.1,10.2-8.7,17.1-19.1,17.3c-10.3,0.2-18.3-6.6-19.6-16.6
	C247.4,455.7,253.4,448.4,267.9,443.9z"/>
<g>
	<path class="st0" d="M78,125.3c8-3.9,16.1-7.8,24.1-11.5c8.2-3.8,15.8-4,22.7-0.7c6.2,3,10.8,8.3,14.1,15.8
		c2.5,5.8,3.6,11.5,3.4,17.2c-0.4,10.1-5.5,17.2-15.3,21.7c-7.7,3.5-15.3,7.2-22.9,10.9C95.4,161,86.7,143.2,78,125.3z M122.7,162.3
		c2.6-1.2,4.6-2.4,6.1-3.7c2.6-2.3,4.2-5.3,4.9-8.9c0.5-2.9,0.4-6.2-0.4-9.9c-0.5-2.2-1.2-4.2-1.9-6c-3-6.7-6.8-11.3-11.3-13.8
		c-4.6-2.4-10.1-2.2-16.5,0.8c-4.7,2.2-9.4,4.4-14.1,6.7c6.6,13.7,13.2,27.5,19.8,41.2C113.5,166.6,118.1,164.5,122.7,162.3z"/>
	<path class="st0" d="M171.8,102.8c3.5,0.2,6.4,1,8.8,2.6c2.3,1.5,4.2,3.5,5.7,6c1.2,1.7,2.5,4.6,4.1,8.7
		c-10.6,4.1-21.1,8.3-31.6,12.7c1.8,4,4.2,6.9,7.2,8.5c2.9,1.7,6.4,1.7,10.4,0.1c3.7-1.5,6.2-3.9,7.5-7.1c0.7-1.9,1-3.8,0.8-5.8
		c2.4-0.9,4.8-1.9,7.2-2.8c0.4,1.6,0.4,3.5,0,5.7c-0.4,2.2-1,4.2-1.8,5.9c-1.4,2.9-3.5,5.3-6.4,7.3c-1.6,1.1-3.4,2.1-5.6,2.9
		c-5.3,2.1-10.5,2.2-15.7,0.1c-5.2-2.1-9.2-6.3-12-12.9c-2.7-6.4-3.1-12.4-1-18c2.1-5.6,6.3-9.7,12.5-12.2
		C165,103.1,168.3,102.6,171.8,102.8z M180.7,117.6c-1.5-2.8-3.1-4.9-4.9-6.2c-3.3-2.5-7.3-2.8-12-0.9c-3.4,1.4-5.7,3.7-7.1,6.8
		c-1.3,3.2-1.4,6.5,0,10C164.6,124,172.6,120.7,180.7,117.6z"/>
	<path class="st0" d="M190.6,94.4c2.4-0.9,4.9-1.8,7.3-2.7c0.7,1.8,1.3,3.6,2,5.4c0.8-2.4,1.9-4.4,3.3-6.1c2-2.4,4.7-4.3,8.2-5.5
		c5.1-1.8,10.1-1.5,14.8,0.8c4.8,2.3,8.3,6.9,10.5,13.5c3,9,2.7,16.2-1,21.7c-2.3,3.5-5.5,6-9.7,7.5c-3.3,1.2-6.2,1.5-8.9,0.9
		c-1.6-0.3-3.5-1.1-5.8-2.3c2.6,6.9,5.1,13.9,7.7,20.8c-2.4,0.9-4.8,1.8-7.1,2.7C204.8,132.2,197.7,113.3,190.6,94.4z M230.1,116.3
		c1.3-3.5,1.1-7.9-0.8-13.3c-1.1-3.3-2.6-5.9-4.4-7.9c-3.5-3.8-7.9-4.9-13.1-3c-5.2,1.9-7.9,5.5-8.1,11c-0.1,2.9,0.6,6.3,2,10.2
		c1.2,3.1,2.7,5.6,4.5,7.5c3.5,3.5,7.7,4.3,12.7,2.5C226.4,122.1,228.8,119.8,230.1,116.3z"/>
	<path class="st0" d="M268.2,85.9c1.7-0.7,2.6-1.8,2.9-3.1c0.1-0.7,0-1.7-0.3-2.8c-0.7-2.4-2.2-3.8-4.3-4.4c-2.2-0.5-5-0.3-8.4,0.8
		c-4,1.2-6.4,3.1-7.5,5.6c-0.6,1.4-0.7,3.2-0.2,5.4c-2.3,0.8-4.7,1.5-7,2.3c-1.5-5.1-0.9-9.3,1.9-12.4c2.8-3.1,6.5-5.4,11.1-6.8
		c5.3-1.7,10-2,13.8-1.2c3.9,0.9,6.4,3.3,7.5,7.2c2.4,8,4.7,16,7.1,24c0.2,0.7,0.5,1.3,1,1.6c0.4,0.3,1.2,0.4,2.2,0.1
		c0.3-0.1,0.7-0.2,1.1-0.4c0.4-0.2,0.8-0.3,1.3-0.6c0.5,1.7,1,3.5,1.5,5.2c-1.1,0.6-1.9,1.1-2.4,1.3c-0.6,0.3-1.4,0.5-2.4,0.8
		c-2.5,0.7-4.6,0.4-6.3-0.9c-0.9-0.7-1.7-1.9-2.4-3.5c-0.9,2.3-2.6,4.6-5,6.8c-2.4,2.2-5.2,3.9-8.6,4.9c-4,1.3-7.7,1.2-11-0.3
		c-3.3-1.5-5.6-4-6.7-7.4c-1.3-3.8-1-7.2,0.9-10.1c1.9-2.9,4.8-5.3,8.9-7.2C260.5,89.3,264.3,87.6,268.2,85.9z M258.4,109.6
		c1.9,0.7,3.9,0.6,6.1,0c2.6-0.8,4.9-2.2,7-4c3.5-3.1,4.7-6.8,3.4-11.1c-0.6-1.9-1.1-3.7-1.7-5.6c-0.7,0.8-1.8,1.6-3.1,2.4
		c-1.3,0.8-2.7,1.5-4,2.1c-1.4,0.6-2.9,1.3-4.3,1.9c-2.6,1.2-4.5,2.4-5.6,3.5c-1.9,1.9-2.4,4.2-1.6,6.9
		C255.2,107.6,256.5,108.9,258.4,109.6z"/>
	<path class="st0" d="M287.3,62.4c2.4-0.7,4.9-1.4,7.3-2c0.7,2.4,1.3,4.8,2,7.2c0.2-1.6,1.2-3.7,3-6.3c1.8-2.7,4.2-4.4,7.2-5.2
		c0.1,0,0.4-0.1,0.7-0.2c0.3-0.1,0.9-0.2,1.8-0.3c0.7,2.5,1.3,5,2,7.4c-0.5,0-0.9,0.1-1.3,0.2c-0.4,0.1-0.8,0.2-1.3,0.3
		c-3.9,1-6.5,3-7.9,5.8c-1.4,2.8-1.7,5.7-0.9,8.7c2.2,8,4.4,16,6.6,24.1c-2.5,0.7-4.9,1.4-7.4,2.1C295.2,90.2,291.3,76.3,287.3,62.4
		z"/>
	<path class="st0" d="M314.8,42.5c2.6-0.7,5.2-1.3,7.9-2c1,3.9,1.9,7.8,2.9,11.8c2.4-0.6,4.9-1.2,7.3-1.8c0.5,1.9,0.9,3.9,1.4,5.8
		c-2.4,0.6-4.9,1.2-7.3,1.8c2.3,9.2,4.5,18.3,6.8,27.5c0.4,1.5,1.1,2.3,2.3,2.6c0.7,0.1,1.7,0.1,3-0.3c0.4-0.1,0.7-0.2,1.2-0.3
		c0.4-0.1,0.9-0.3,1.4-0.5c0.5,1.9,0.9,3.8,1.4,5.6c-0.8,0.4-1.6,0.8-2.5,1.2c-0.9,0.3-1.9,0.6-3,0.9c-3.5,0.9-6,0.6-7.7-0.8
		c-1.7-1.4-2.8-3.4-3.5-6.1c-2.4-9.3-4.7-18.6-7.1-27.8c-2.1,0.5-4.1,1.1-6.2,1.6c-0.5-1.9-1-3.8-1.5-5.8c2.1-0.5,4.1-1.1,6.2-1.6
		C316.8,50.3,315.8,46.4,314.8,42.5z"/>
	<path class="st0" d="M340.6,48.6c2.5-0.6,5.1-1.2,7.6-1.8c0.5,2,0.9,4,1.4,6c1.4-2.5,2.7-4.4,3.9-5.7c2.2-2.2,4.9-3.6,8.2-4.3
		c3.7-0.8,6.8-0.6,9.4,0.6c1.5,0.7,2.9,1.9,4.3,3.5c1.3-2.6,2.9-4.7,5-6.3c2.1-1.6,4.6-2.6,7.5-3.2c6.2-1.2,10.9,0.1,13.9,3.9
		c1.6,2,2.7,4.9,3.4,8.7c1.7,9.5,3.4,19,5.1,28.4c-2.6,0.5-5.2,0.9-7.8,1.4c-1.8-9.9-3.7-19.8-5.5-29.6c-0.5-2.8-1.7-4.7-3.4-5.4
		c-1.7-0.8-3.7-0.9-5.9-0.5c-3,0.6-5.5,2-7.3,4.4c-1.8,2.3-2.3,5.7-1.4,10.1c1.7,8.2,3.3,16.5,5,24.7c-2.5,0.5-5.1,1-7.6,1.6
		c-1.9-9.2-3.9-18.5-5.8-27.7c-0.6-2.9-1.4-4.9-2.4-6.1c-1.6-1.7-4-2.3-7.2-1.6c-2.9,0.6-5.3,2.3-7.2,4.9c-1.9,2.6-2.2,6.7-1,12.1
		c1.7,7.5,3.4,15,5.1,22.4c-2.5,0.6-5,1.1-7.5,1.7C347.2,76.8,343.9,62.7,340.6,48.6z"/>
	<path class="st0" d="M443.1,30.5c3.3,1,5.9,2.5,7.8,4.6c1.8,2,3.2,4.3,4.1,7.2c0.7,1.9,1.4,5,2,9.4c-11.1,1.5-22.1,3.2-33.2,5
		c0.9,4.3,2.5,7.7,4.9,10c2.4,2.3,5.7,3.1,9.9,2.5c3.9-0.6,6.9-2.3,8.8-5.1c1.1-1.6,1.8-3.5,2.1-5.4c2.5-0.4,5-0.7,7.5-1
		c0,1.6-0.4,3.5-1.2,5.5c-0.8,2.1-1.9,3.9-3.1,5.3c-2,2.5-4.6,4.3-7.8,5.6c-1.7,0.7-3.7,1.2-6,1.6c-5.5,0.9-10.5-0.3-15-3.6
		c-4.5-3.2-7.4-8.3-8.6-15.3c-1.2-6.9-0.2-12.8,3.1-17.8c3.3-5,8.2-8,14.7-9C436.5,29.3,439.8,29.5,443.1,30.5z M448.3,47
		c-0.8-3.1-1.8-5.5-3.2-7.2c-2.6-3.2-6.4-4.4-11.3-3.6c-3.5,0.5-6.3,2.2-8.3,5c-2,2.8-2.8,6-2.3,9.7C431.5,49.4,439.9,48.2,448.3,47
		z"/>
	<path class="st0" d="M463.7,26.5c2.5-0.3,5-0.6,7.5-0.9c0.2,2,0.5,4.1,0.7,6.1c1.9-2.8,4-4.9,6.4-6.3c2.3-1.4,5-2.2,8.1-2.6
		c6.6-0.7,11.3,1,14.1,5c1.5,2.2,2.5,5.5,2.9,9.9c0.9,9.2,1.7,18.5,2.6,27.7c-2.6,0.2-5.1,0.5-7.7,0.8c-0.9-9.1-1.8-18.1-2.8-27.2
		c-0.3-2.6-0.9-4.7-1.9-6.2c-1.7-2.5-4.3-3.6-8-3.2c-1.9,0.2-3.4,0.5-4.5,1c-2.1,0.8-3.8,2.2-5.2,4.2c-1.1,1.6-1.8,3.1-2,4.7
		c-0.2,1.6-0.1,3.8,0.2,6.6c0.9,7.5,1.8,15,2.7,22.6c-2.5,0.3-5,0.6-7.6,0.9C467.4,55.2,465.6,40.8,463.7,26.5z"/>
	<path class="st0" d="M514,9c2.7-0.2,5.4-0.4,8-0.6c0.3,4,0.6,8.1,0.9,12.1c2.5-0.2,5-0.4,7.5-0.6c0.1,2,0.3,4,0.4,5.9
		c-2.5,0.2-5,0.4-7.4,0.5c0.7,9.4,1.4,18.8,2.2,28.2c0.1,1.5,0.7,2.5,1.8,2.9c0.6,0.3,1.6,0.3,3,0.2c0.4,0,0.8-0.1,1.2-0.1
		c0.4,0,0.9-0.1,1.5-0.2c0.1,1.9,0.3,3.9,0.4,5.8c-0.9,0.3-1.7,0.5-2.7,0.7c-0.9,0.2-1.9,0.3-3,0.4c-3.5,0.3-6-0.4-7.4-2
		c-1.4-1.6-2.2-3.8-2.5-6.6c-0.8-9.5-1.6-19.1-2.4-28.6c-2.1,0.2-4.2,0.4-6.3,0.5c-0.2-2-0.4-4-0.5-5.9c2.1-0.2,4.2-0.4,6.3-0.5
		C514.7,17.1,514.3,13,514,9z"/>
	<path class="st0" d="M597.3,21.4c4.2,3.7,6.3,9.1,6.4,16.4c0.1,7-1.7,12.8-5.1,17.4c-3.5,4.6-8.9,7-16.3,7.2
		c-6.2,0.2-11.1-1.7-14.9-5.5c-3.8-3.9-5.9-9.2-6.2-16c-0.3-7.3,1.4-13.2,5.1-17.7c3.8-4.5,9-6.8,15.8-7
		C588,16,593.1,17.7,597.3,21.4z M592.9,50.3c1.8-3.7,2.7-7.8,2.6-12.3c-0.1-4-0.8-7.3-2.2-9.8c-2.2-4-6.1-5.9-11.4-5.7
		c-4.7,0.1-8.1,2-10.2,5.4c-2,3.5-2.9,7.6-2.7,12.4c0.2,4.6,1.4,8.4,3.6,11.4c2.2,3,5.6,4.4,10.1,4.3
		C587.8,55.9,591.1,54,592.9,50.3z"/>
	<path class="st0" d="M616.8,3.7c1.9-2.5,5.5-3.7,10.8-3.7c0.5,0,1,0,1.6,0.1c0.5,0,1.1,0.1,1.8,0.1c0,2.2-0.1,4.4-0.1,6.6
		c-0.8-0.1-1.4-0.1-1.8-0.1c-0.4,0-0.7,0-1.1,0c-2.4,0-3.9,0.5-4.4,1.7c-0.5,1.1-0.7,4.1-0.8,8.8c2.6,0,5.3,0,7.9,0.1
		c0,1.9,0,3.8-0.1,5.8c-2.6,0-5.2-0.1-7.8-0.1c-0.1,12.5-0.2,25-0.2,37.4c-2.5,0-5,0-7.5,0c0-12.5,0-25,0-37.4c-2.2,0-4.3,0-6.5,0
		c0-1.9,0-3.8,0-5.8c2.2,0,4.4,0,6.5,0c0-2.3,0-4.5,0-6.8C615.2,7.3,615.8,5.1,616.8,3.7z"/>
	<path class="st0" d="M710.4,8.8c4.2,4.3,6.3,9,6.3,14.1c-2.8-0.2-5.6-0.5-8.5-0.7c-0.6-3.9-2.3-7.1-5-9.5
		c-2.7-2.4-6.6-3.8-11.7-4.2c-6.3-0.4-11.5,1.4-15.5,5.3c-4.1,3.9-6.2,10.2-6.6,18.7c-0.3,7,1.1,12.7,4.3,17.2
		c3.2,4.5,8,6.9,14.6,7.3c6.1,0.4,10.9-1.6,14.5-5.9c1.9-2.3,3.4-5.3,4.5-9.2c2.8,0.2,5.6,0.4,8.3,0.7c-1.3,6.2-4.1,11.2-8.5,15.1
		c-5.3,4.7-12,6.8-20.2,6.3c-7.1-0.4-13-2.8-17.6-7.2c-6.1-5.8-9.1-14.5-8.6-26.1c0.3-8.8,3.1-15.9,8.3-21.3
		c5.7-5.9,13.4-8.6,22.9-8C700.1,2.1,706.3,4.5,710.4,8.8z"/>
	<path class="st0" d="M729.2,5.9c2.7,0.2,5.3,0.5,8,0.8c-0.7,7.4-1.5,14.7-2.2,22.1c2.1-2,3.9-3.4,5.5-4.1c2.7-1.3,5.9-1.7,9.7-1.3
		c6.8,0.8,11.1,3.5,13,8.2c1,2.5,1.2,5.9,0.7,10.2c-1.2,9.2-2.3,18.4-3.5,27.6c-2.6-0.3-5.2-0.6-7.8-1c1.1-9.1,2.2-18.1,3.2-27.2
		c0.4-3.2,0.2-5.5-0.5-7.1c-1.1-2.5-3.7-4-7.6-4.5c-3.2-0.4-6.3,0.4-9.1,2.2c-2.8,1.8-4.5,5.6-5.1,11.3c-0.8,7.6-1.5,15.3-2.3,22.9
		c-2.5-0.3-5.1-0.5-7.6-0.7C725.5,45.6,727.3,25.7,729.2,5.9z"/>
	<path class="st0" d="M799.6,48.4c1.8,0.1,3.1-0.4,3.9-1.5c0.4-0.6,0.8-1.5,1-2.7c0.4-2.5-0.3-4.4-2-5.8c-1.7-1.4-4.3-2.4-7.8-2.9
		c-4.1-0.6-7.1,0-9.1,1.8c-1.1,1-2,2.6-2.6,4.8c-2.4-0.3-4.8-0.7-7.2-1c0.9-5.3,3.2-8.7,7.1-10.3c3.9-1.6,8.2-2,12.9-1.3
		c5.5,0.8,9.8,2.5,12.9,5c3.1,2.5,4.2,5.7,3.6,9.8c-1.4,8.2-2.7,16.4-4.1,24.7c-0.1,0.7-0.1,1.4,0.2,1.9c0.2,0.5,0.9,0.8,1.9,1
		c0.3,0.1,0.7,0.1,1.1,0.1c0.4,0,0.9,0,1.4,0.1c-0.3,1.8-0.6,3.5-0.9,5.3c-1.2,0.1-2.1,0.2-2.8,0.1c-0.6,0-1.5-0.1-2.5-0.3
		c-2.6-0.4-4.3-1.6-5.2-3.6c-0.5-1-0.7-2.4-0.7-4.2c-1.9,1.7-4.3,3-7.4,4c-3.1,1-6.4,1.2-9.8,0.7c-4.2-0.6-7.4-2.3-9.7-5.1
		c-2.3-2.8-3.2-6-2.8-9.6c0.5-4,2.3-6.9,5.2-8.7c2.9-1.8,6.6-2.7,11-2.6C791.3,48.1,795.5,48.3,799.6,48.4z M780.6,65.5
		c1.4,1.4,3.2,2.3,5.4,2.6c2.7,0.4,5.3,0.2,8-0.6c4.5-1.3,7.1-4.1,7.8-8.6c0.3-1.9,0.6-3.9,0.9-5.8c-1,0.4-2.3,0.7-3.8,0.8
		c-1.5,0.1-3,0.2-4.5,0.1c-1.6-0.1-3.1-0.1-4.7-0.1c-2.8-0.1-5,0.2-6.5,0.7c-2.5,0.9-4,2.8-4.4,5.5
		C778.6,62.3,779.2,64.1,780.6,65.5z"/>
	<path class="st0" d="M829.7,19.5c2.6,0.5,5.3,0.9,7.9,1.4c-1.3,7.3-2.7,14.6-4,21.8c2.2-1.8,4.2-3,5.8-3.6c2.8-1,6.1-1.2,9.8-0.5
		c6.7,1.3,10.8,4.4,12.3,9.2c0.8,2.6,0.7,6-0.1,10.2c-1.9,9.1-3.8,18.2-5.8,27.2c-2.6-0.5-5.1-1.1-7.7-1.6
		c1.8-8.9,3.6-17.9,5.5-26.8c0.6-3.1,0.7-5.5,0.1-7.1c-0.9-2.6-3.3-4.3-7.2-5.1c-3.2-0.6-6.3-0.2-9.3,1.4c-3,1.6-5,5.2-6.1,10.9
		c-1.4,7.5-2.8,15.1-4.2,22.6c-2.5-0.5-5-0.9-7.5-1.4C822.7,58.7,826.2,39.1,829.7,19.5z"/>
	<path class="st0" d="M880.1,33.9c2.6,0.6,5.3,1.2,7.9,1.8c-0.9,3.9-1.8,7.9-2.7,11.8c2.4,0.6,4.9,1.1,7.3,1.7
		c-0.5,1.9-0.9,3.9-1.4,5.8c-2.4-0.6-4.9-1.1-7.3-1.7c-2.1,9.2-4.2,18.4-6.3,27.6c-0.3,1.5,0,2.6,0.9,3.3c0.5,0.4,1.5,0.8,2.8,1.1
		c0.4,0.1,0.8,0.2,1.2,0.2c0.4,0.1,0.9,0.2,1.5,0.2c-0.4,1.9-0.9,3.8-1.3,5.6c-0.9,0-1.8,0-2.8-0.1c-0.9-0.1-2-0.3-3-0.5
		c-3.5-0.8-5.6-2.2-6.5-4.2c-0.9-2-1-4.3-0.4-7c2.1-9.3,4.2-18.7,6.3-28c-2.1-0.5-4.1-0.9-6.2-1.4c0.4-1.9,0.8-3.9,1.3-5.8
		c2.1,0.5,4.2,0.9,6.2,1.4C878.4,41.8,879.3,37.9,880.1,33.9z"/>
	<path class="st0" d="M920.6,73.9c1.8,0.3,3.1-0.1,4-1.1c0.5-0.5,0.9-1.4,1.2-2.6c0.6-2.4,0.2-4.4-1.4-6c-1.6-1.6-4.1-2.8-7.5-3.7
		c-4-1-7.1-0.8-9.3,0.8c-1.2,0.9-2.2,2.4-3.1,4.5c-2.4-0.6-4.7-1.2-7.1-1.8c1.4-5.2,4.1-8.4,8.1-9.5c4-1.2,8.4-1.1,13,0.1
		c5.4,1.4,9.5,3.5,12.3,6.3c2.8,2.8,3.6,6.2,2.6,10.1c-2.2,8-4.4,16.1-6.7,24.1c-0.2,0.7-0.2,1.4,0,1.9c0.2,0.5,0.8,0.9,1.8,1.2
		c0.3,0.1,0.7,0.2,1.1,0.3c0.4,0.1,0.9,0.1,1.4,0.2c-0.5,1.7-1,3.5-1.5,5.2c-1.2,0-2.2-0.1-2.8-0.1c-0.6-0.1-1.5-0.3-2.5-0.6
		c-2.5-0.7-4.2-2.1-4.8-4.1c-0.4-1.1-0.4-2.5-0.2-4.2c-2,1.5-4.6,2.5-7.8,3.2c-3.2,0.6-6.5,0.5-9.9-0.3c-4.1-1-7.1-3.1-9.2-6.1
		c-2-3-2.6-6.3-1.8-9.9c0.9-3.9,3-6.6,6.1-8.1c3.1-1.5,6.9-2,11.3-1.4C912.2,72.7,916.4,73.3,920.6,73.9z M899.8,88.9
		c1.3,1.6,3,2.6,5.1,3.2c2.6,0.7,5.3,0.8,8.1,0.3c4.6-0.8,7.6-3.4,8.7-7.7c0.5-1.9,1-3.8,1.5-5.7c-1.1,0.3-2.4,0.4-3.9,0.4
		c-1.5,0-3-0.1-4.5-0.3c-1.6-0.2-3.1-0.4-4.7-0.6c-2.8-0.4-5-0.3-6.6,0c-2.6,0.6-4.3,2.3-5,5C898.1,85.5,898.5,87.3,899.8,88.9z"/>
	<path class="st0" d="M980.9,56.8c2.9,0.9,5.7,1.8,8.6,2.7c-6.1,18.9-12.2,37.8-18.2,56.7c-2.7-0.9-5.5-1.7-8.2-2.6
		C969,94.6,975,75.7,980.9,56.8z"/>
	<path class="st0" d="M997.2,79c2.5,0.8,5,1.7,7.5,2.5c-0.7,1.9-1.3,3.9-2,5.8c2.5-1.4,4.6-2.3,6.4-2.7c3-0.7,6.1-0.5,9.3,0.6
		c3.6,1.3,6.2,3.1,7.8,5.5c0.9,1.4,1.5,3.1,1.9,5.3c2.5-1.6,5-2.5,7.7-2.7c2.6-0.2,5.4,0.2,8.2,1.3c6,2.3,9.3,5.8,9.9,10.6
		c0.3,2.6-0.2,5.6-1.6,9.2c-3.5,9-7.1,17.9-10.6,26.9c-2.5-1-5-2-7.5-2.9c3.6-9.4,7.2-18.8,10.9-28.1c1-2.7,1-4.8-0.1-6.4
		c-1.1-1.6-2.7-2.8-4.8-3.6c-2.9-1.1-5.8-1.2-8.6-0.1c-2.8,1-4.9,3.6-6.5,7.8c-2.9,7.9-5.8,15.8-8.7,23.7c-2.5-0.9-4.9-1.8-7.4-2.7
		c3.2-8.9,6.4-17.8,9.6-26.7c1-2.8,1.4-4.9,1.1-6.5c-0.5-2.3-2.2-4-5.3-5.1c-2.8-1-5.8-0.9-8.8,0.3c-3,1.2-5.4,4.5-7.2,9.8
		c-2.5,7.3-5,14.5-7.4,21.8c-2.4-0.8-4.9-1.7-7.3-2.5C988,106.4,992.6,92.7,997.2,79z"/>
	<path class="st0" d="M1068.4,105.3c2.5,1,4.9,2,7.4,3c-0.8,1.9-1.6,3.8-2.4,5.7c2.6-1.2,4.8-2,6.6-2.3c3.1-0.5,6.2-0.1,9.3,1.2
		c3.5,1.5,6,3.5,7.4,6c0.8,1.4,1.3,3.2,1.5,5.4c2.6-1.4,5.2-2.1,7.8-2.2c2.7,0,5.4,0.6,8.1,1.8c5.9,2.7,9,6.4,9.3,11.2
		c0.2,2.6-0.6,5.6-2.2,9.1c-4.1,8.7-8.2,17.4-12.3,26.2c-2.4-1.1-4.9-2.3-7.3-3.4c4.2-9.1,8.4-18.3,12.6-27.4
		c1.2-2.6,1.3-4.8,0.3-6.4c-1-1.6-2.5-2.9-4.6-3.9c-2.9-1.3-5.7-1.5-8.6-0.7c-2.9,0.8-5.2,3.3-7,7.4c-3.4,7.7-6.8,15.4-10.2,23.1
		c-2.4-1.1-4.8-2.1-7.2-3.2c3.8-8.7,7.5-17.3,11.3-26c1.2-2.7,1.7-4.8,1.5-6.4c-0.3-2.3-2-4.2-5.1-5.5c-2.8-1.2-5.7-1.3-8.8-0.2
		c-3.1,1-5.7,4.1-7.8,9.3c-2.9,7.1-5.9,14.2-8.8,21.3c-2.4-1-4.8-2-7.2-2.9C1057.5,132.1,1062.9,118.7,1068.4,105.3z"/>
	<path class="st0" d="M1145.2,121.7c2.5,1.2,5,2.4,7.5,3.6c-1.2,2.5-2.4,4.9-3.6,7.4c-2.5-1.2-5-2.4-7.4-3.6
		C1142.8,126.7,1144,124.2,1145.2,121.7z M1138.1,136.4c2.5,1.2,4.9,2.4,7.4,3.6c-6.3,12.9-12.7,25.9-19,38.8
		c-2.4-1.2-4.8-2.3-7.1-3.5C1125.6,162.4,1131.8,149.4,1138.1,136.4z"/>
</g>
<g>
	<path class="st0" d="M93.5,892.1c0.2,3,0.8,5.4,2,7.2c2.3,3.5,6.3,5.2,12,5.2c2.6,0,4.9-0.4,7-1.1c4.1-1.5,6.1-4.1,6.1-7.9
		c0-2.9-0.9-4.9-2.6-6.1c-1.8-1.2-4.5-2.2-8.2-3.1l-6.9-1.6c-4.5-1-7.7-2.2-9.5-3.5c-3.2-2.2-4.8-5.5-4.8-9.8
		c0-4.7,1.6-8.6,4.8-11.6c3.2-3,7.7-4.5,13.5-4.5c5.3,0,9.9,1.3,13.6,4c3.7,2.6,5.6,6.9,5.6,12.7h-6.7c-0.3-2.8-1.1-5-2.2-6.5
		c-2.1-2.7-5.6-4.1-10.6-4.1c-4,0-6.9,0.9-8.6,2.6c-1.8,1.8-2.6,3.8-2.6,6.1c0,2.6,1,4.4,3.1,5.6c1.4,0.8,4.4,1.7,9.2,2.9l7.1,1.7
		c3.4,0.8,6.1,1.9,7.9,3.3c3.2,2.4,4.8,6,4.8,10.7c0,5.8-2.1,9.9-6.2,12.4s-8.9,3.7-14.3,3.7c-6.4,0-11.3-1.7-14.9-5
		c-3.6-3.3-5.4-7.8-5.3-13.4H93.5z"/>
	<path class="st0" d="M136.2,871h6.3v5.1c1.3-1.7,2.7-3.1,4.2-4c2.2-1.4,4.7-2.1,7.6-2.1c4.3,0,8,1.7,11,5c3,3.3,4.5,8,4.5,14.2
		c0,8.3-2.2,14.3-6.5,17.8c-2.8,2.3-6,3.4-9.7,3.4c-2.9,0-5.3-0.6-7.3-1.9c-1.1-0.7-2.4-1.9-3.8-3.7v19.5h-6.4V871z M160.3,901
		c2-2.5,3-6.3,3-11.2c0-3-0.4-5.7-1.3-7.8c-1.7-4.2-4.7-6.3-9.2-6.3c-4.5,0-7.5,2.2-9.2,6.7c-0.9,2.4-1.3,5.4-1.3,9.1
		c0,2.9,0.4,5.5,1.3,7.5c1.7,3.9,4.7,5.9,9.2,5.9C155.8,904.7,158.3,903.5,160.3,901z"/>
	<path class="st0" d="M200.9,871.9c2.5,1.3,4.5,2.9,5.8,4.9c1.3,1.9,2.1,4.2,2.6,6.7c0.4,1.8,0.6,4.6,0.6,8.4H182
		c0.1,3.9,1,7,2.7,9.3c1.7,2.3,4.3,3.5,7.9,3.5c3.3,0,6-1.1,8-3.3c1.1-1.3,1.9-2.8,2.4-4.5h6.3c-0.2,1.4-0.7,3-1.7,4.7
		c-0.9,1.7-2,3.1-3.1,4.2c-1.9,1.9-4.3,3.2-7.2,3.8c-1.5,0.4-3.3,0.6-5.2,0.6c-4.7,0-8.7-1.7-12-5.2c-3.3-3.5-4.9-8.3-4.9-14.5
		c0-6.1,1.7-11.1,5-14.9c3.3-3.8,7.6-5.7,13-5.7C195.7,870,198.4,870.6,200.9,871.9z M203.2,886.9c-0.3-2.8-0.9-5-1.8-6.7
		c-1.7-3.1-4.7-4.6-8.7-4.6c-2.9,0-5.4,1.1-7.4,3.2s-3,4.8-3.1,8.1H203.2z"/>
	<path class="st0" d="M243.1,872.9c2.7,2.1,4.3,5.7,4.9,10.8h-6.2c-0.4-2.4-1.2-4.3-2.6-5.9c-1.4-1.6-3.5-2.3-6.5-2.3
		c-4.1,0-7,2-8.8,6c-1.1,2.6-1.7,5.8-1.7,9.6c0,3.8,0.8,7,2.4,9.6c1.6,2.6,4.2,3.9,7.6,3.9c2.7,0,4.8-0.8,6.3-2.4
		c1.6-1.6,2.6-3.8,3.2-6.7h6.2c-0.7,5.1-2.5,8.8-5.3,11.1c-2.9,2.3-6.5,3.5-10.9,3.5c-5,0-9-1.8-11.9-5.5c-3-3.6-4.5-8.2-4.5-13.7
		c0-6.7,1.6-11.9,4.9-15.6c3.3-3.7,7.4-5.6,12.4-5.6C236.9,869.8,240.4,870.8,243.1,872.9z"/>
	<path class="st0" d="M254.4,856.7h6.5v7.3h-6.5V856.7z M254.4,871h6.5v38h-6.5V871z"/>
	<path class="st0" d="M291.1,885.9c1.5-0.2,2.5-0.8,3-1.8c0.3-0.6,0.4-1.4,0.4-2.5c0-2.2-0.8-3.8-2.3-4.8c-1.6-1-3.8-1.5-6.7-1.5
		c-3.3,0-5.7,0.9-7.1,2.7c-0.8,1-1.3,2.5-1.5,4.5h-6c0.1-4.7,1.6-8,4.6-9.8c2.9-1.8,6.3-2.8,10.2-2.8c4.5,0,8.1,0.9,10.9,2.6
		c2.8,1.7,4.2,4.4,4.2,8v22c0,0.7,0.1,1.2,0.4,1.6c0.3,0.4,0.8,0.6,1.7,0.6c0.3,0,0.6,0,1-0.1c0.4,0,0.7-0.1,1.1-0.2v4.7
		c-1,0.3-1.8,0.5-2.3,0.5c-0.5,0.1-1.2,0.1-2.1,0.1c-2.2,0-3.8-0.8-4.8-2.4c-0.5-0.8-0.9-2-1.1-3.5c-1.3,1.7-3.2,3.2-5.6,4.5
		c-2.4,1.3-5.1,1.9-8.1,1.9c-3.5,0-6.4-1.1-8.7-3.2c-2.2-2.1-3.4-4.8-3.4-8.1c0-3.5,1.1-6.3,3.3-8.2s5.1-3.1,8.7-3.6L291.1,885.9z
		 M277.6,903.3c1.4,1.1,3,1.6,4.8,1.6c2.3,0,4.4-0.5,6.6-1.6c3.6-1.7,5.3-4.6,5.3-8.5v-5.2c-0.8,0.5-1.8,0.9-3,1.3
		c-1.2,0.3-2.4,0.6-3.6,0.7l-3.9,0.5c-2.3,0.3-4.1,0.8-5.2,1.5c-2,1.1-3,2.9-3,5.3C275.5,900.7,276.2,902.2,277.6,903.3z"/>
	<path class="st0" d="M311.4,856.7h6.4V909h-6.4V856.7z"/>
	<path class="st0" d="M349.3,856.7h23.4c4.6,0,8.4,1.3,11.2,3.9s4.3,6.3,4.3,11.1c0,4.1-1.3,7.6-3.8,10.7c-2.5,3-6.4,4.5-11.7,4.5
		h-16.3V909h-7.1V856.7z M376.8,863.9c-1.6-0.7-3.7-1.1-6.4-1.1h-14v18.1h14c3.2,0,5.7-0.7,7.7-2c2-1.4,3-3.7,3-7.2
		C381,867.9,379.6,865.3,376.8,863.9z"/>
	<path class="st0" d="M396.6,870.9h6.1v6.6c0.5-1.3,1.7-2.8,3.7-4.7c1.9-1.8,4.2-2.8,6.7-2.8c0.1,0,0.3,0,0.6,0
		c0.3,0,0.8,0.1,1.5,0.1v6.8c-0.4-0.1-0.7-0.1-1.1-0.1c-0.3,0-0.7,0-1.1,0c-3.2,0-5.7,1-7.4,3.1c-1.7,2.1-2.6,4.5-2.6,7.2v22h-6.4
		V870.9z"/>
	<path class="st0" d="M448.4,874.7c3.4,3.3,5.1,8.1,5.1,14.5c0,6.1-1.5,11.2-4.5,15.2s-7.6,6-13.8,6c-5.2,0-9.4-1.8-12.4-5.3
		c-3.1-3.5-4.6-8.3-4.6-14.3c0-6.4,1.6-11.5,4.8-15.3s7.6-5.7,13-5.7C440.9,869.8,445,871.4,448.4,874.7z M444.4,900
		c1.6-3.2,2.3-6.8,2.3-10.7c0-3.6-0.6-6.5-1.7-8.7c-1.8-3.5-4.9-5.3-9.2-5.3c-3.9,0-6.7,1.5-8.5,4.5c-1.8,3-2.6,6.6-2.6,10.8
		c0,4.1,0.9,7.4,2.6,10.1c1.8,2.7,4.6,4.1,8.4,4.1C440,904.9,442.8,903.3,444.4,900z"/>
	<path class="st0" d="M455.3,918.7c2.9-0.1,4.6-0.4,5.2-0.8c0.6-0.4,0.9-1.7,0.9-3.9v-43h6.4v43.7c0,2.8-0.5,4.9-1.4,6.2
		c-1.5,2.3-4.3,3.5-8.5,3.5c-0.3,0-0.6,0-1,0c-0.3,0-0.9-0.1-1.6-0.1V918.7z M467.7,864.1h-6.4v-7.4h6.4V864.1z"/>
	<path class="st0" d="M501.1,871.9c2.5,1.3,4.5,2.9,5.8,4.9c1.3,1.9,2.1,4.2,2.6,6.7c0.4,1.8,0.6,4.6,0.6,8.4h-27.8
		c0.1,3.9,1,7,2.7,9.3c1.7,2.3,4.3,3.5,7.9,3.5c3.3,0,6-1.1,8-3.3c1.1-1.3,1.9-2.8,2.4-4.5h6.3c-0.2,1.4-0.7,3-1.7,4.7
		c-0.9,1.7-2,3.1-3.1,4.2c-1.9,1.9-4.3,3.2-7.2,3.8c-1.5,0.4-3.3,0.6-5.2,0.6c-4.7,0-8.7-1.7-12-5.2c-3.3-3.5-4.9-8.3-4.9-14.5
		c0-6.1,1.7-11.1,5-14.9c3.3-3.8,7.6-5.7,13-5.7C496,870,498.6,870.6,501.1,871.9z M503.4,886.9c-0.3-2.8-0.9-5-1.8-6.7
		c-1.7-3.1-4.7-4.6-8.7-4.6c-2.9,0-5.4,1.1-7.4,3.2s-3,4.8-3.1,8.1H503.4z"/>
	<path class="st0" d="M543.4,872.9c2.7,2.1,4.3,5.7,4.9,10.8H542c-0.4-2.4-1.2-4.3-2.6-5.9c-1.4-1.6-3.5-2.3-6.5-2.3
		c-4.1,0-7,2-8.8,6c-1.1,2.6-1.7,5.8-1.7,9.6c0,3.8,0.8,7,2.4,9.6c1.6,2.6,4.2,3.9,7.6,3.9c2.7,0,4.8-0.8,6.3-2.4
		c1.6-1.6,2.6-3.8,3.2-6.7h6.2c-0.7,5.1-2.5,8.8-5.3,11.1c-2.9,2.3-6.5,3.5-10.9,3.5c-5,0-9-1.8-11.9-5.5c-3-3.6-4.5-8.2-4.5-13.7
		c0-6.7,1.6-11.9,4.9-15.6c3.3-3.7,7.4-5.6,12.4-5.6C537.2,869.8,540.7,870.8,543.4,872.9z"/>
	<path class="st0" d="M555.9,860.2h6.5v10.7h6.1v5.2h-6.1V901c0,1.3,0.5,2.2,1.4,2.7c0.5,0.3,1.3,0.4,2.5,0.4c0.3,0,0.6,0,1,0
		s0.8-0.1,1.2-0.1v5.1c-0.7,0.2-1.5,0.4-2.3,0.5c-0.8,0.1-1.7,0.1-2.6,0.1c-3,0-5-0.8-6.1-2.3c-1.1-1.5-1.6-3.5-1.6-6v-25.3h-5.2
		v-5.2h5.2V860.2z"/>
	<path class="st0" d="M578.7,897.1c0.2,2.1,0.7,3.8,1.6,4.9c1.6,2.1,4.5,3.1,8.6,3.1c2.4,0,4.6-0.5,6.4-1.5c1.8-1,2.8-2.6,2.8-4.8
		c0-1.6-0.7-2.9-2.2-3.7c-0.9-0.5-2.8-1.1-5.6-1.8l-5.2-1.3c-3.3-0.8-5.7-1.7-7.3-2.7c-2.8-1.7-4.2-4.1-4.2-7.2c0-3.6,1.3-6.5,4-8.8
		c2.6-2.2,6.2-3.4,10.6-3.4c5.8,0,10,1.7,12.6,5.1c1.6,2.1,2.4,4.4,2.3,6.9h-6.1c-0.1-1.4-0.6-2.8-1.6-3.9c-1.5-1.7-4.1-2.5-7.8-2.5
		c-2.5,0-4.4,0.5-5.6,1.4c-1.3,0.9-1.9,2.1-1.9,3.7c0,1.7,0.8,3,2.5,4c1,0.6,2.4,1.1,4.3,1.6l4.3,1c4.7,1.1,7.8,2.2,9.4,3.2
		c2.5,1.6,3.7,4.2,3.7,7.7c0,3.4-1.3,6.3-3.9,8.8c-2.6,2.5-6.6,3.7-11.9,3.7c-5.8,0-9.8-1.3-12.2-3.9c-2.4-2.6-3.7-5.8-3.8-9.6
		H578.7z"/>
	<path class="st0" d="M623.3,856.7h5.4L612.2,909h-5.4L623.3,856.7z"/>
	<path class="st0" d="M652.7,856.7h10.2l15.1,44.3l15-44.3h10.1V909h-6.8v-30.9c0-1.1,0-2.8,0.1-5.3c0-2.5,0.1-5.1,0.1-7.9l-15,44.2
		h-7l-15.1-44.2v1.6c0,1.3,0,3.2,0.1,5.9c0.1,2.6,0.1,4.6,0.1,5.8V909h-6.8V856.7z"/>
	<path class="st0" d="M736.4,871.9c2.5,1.3,4.5,2.9,5.8,4.9c1.3,1.9,2.1,4.2,2.6,6.7c0.4,1.8,0.6,4.6,0.6,8.4h-27.8
		c0.1,3.9,1,7,2.7,9.3c1.7,2.3,4.3,3.5,7.9,3.5c3.3,0,6-1.1,8-3.3c1.1-1.3,1.9-2.8,2.4-4.5h6.3c-0.2,1.4-0.7,3-1.7,4.7
		c-0.9,1.7-2,3.1-3.1,4.2c-1.9,1.9-4.3,3.2-7.2,3.8c-1.5,0.4-3.3,0.6-5.2,0.6c-4.7,0-8.7-1.7-12-5.2c-3.3-3.5-4.9-8.3-4.9-14.5
		c0-6.1,1.7-11.1,5-14.9c3.3-3.8,7.6-5.7,13-5.7C731.2,870,733.8,870.6,736.4,871.9z M738.7,886.9c-0.3-2.8-0.9-5-1.8-6.7
		c-1.7-3.1-4.7-4.6-8.7-4.6c-2.9,0-5.4,1.1-7.4,3.2s-3,4.8-3.1,8.1H738.7z"/>
	<path class="st0" d="M774.4,872c1.1,0.7,2.4,2,3.9,3.7v-19.3h6.2V909h-5.8v-5.3c-1.5,2.4-3.3,4.1-5.3,5.1s-4.4,1.6-7,1.6
		c-4.2,0-7.9-1.8-11-5.4c-3.1-3.6-4.7-8.3-4.7-14.3c0-5.6,1.4-10.4,4.2-14.5c2.8-4.1,6.9-6.1,12.1-6.1
		C770,870.2,772.4,870.8,774.4,872z M760,900.7c1.7,2.8,4.5,4.1,8.3,4.1c3,0,5.4-1.3,7.3-3.8c1.9-2.6,2.9-6.2,2.9-11
		c0-4.8-1-8.4-2.9-10.7c-2-2.3-4.4-3.5-7.3-3.5c-3.2,0-5.8,1.2-7.8,3.7c-2,2.5-3,6.1-3,10.9C757.5,894.5,758.3,897.9,760,900.7z"/>
	<path class="st0" d="M794,856.7h6.5v7.3H794V856.7z M794,871h6.5v38H794V871z"/>
	<path class="st0" d="M830.7,885.9c1.5-0.2,2.5-0.8,3-1.8c0.3-0.6,0.4-1.4,0.4-2.5c0-2.2-0.8-3.8-2.3-4.8c-1.6-1-3.8-1.5-6.7-1.5
		c-3.3,0-5.7,0.9-7.1,2.7c-0.8,1-1.3,2.5-1.5,4.5h-6c0.1-4.7,1.6-8,4.6-9.8c2.9-1.8,6.3-2.8,10.2-2.8c4.5,0,8.1,0.9,10.9,2.6
		c2.8,1.7,4.2,4.4,4.2,8v22c0,0.7,0.1,1.2,0.4,1.6c0.3,0.4,0.8,0.6,1.7,0.6c0.3,0,0.6,0,1-0.1c0.4,0,0.7-0.1,1.1-0.2v4.7
		c-1,0.3-1.8,0.5-2.3,0.5c-0.5,0.1-1.2,0.1-2.1,0.1c-2.2,0-3.8-0.8-4.8-2.4c-0.5-0.8-0.9-2-1.1-3.5c-1.3,1.7-3.2,3.2-5.6,4.5
		c-2.4,1.3-5.1,1.9-8.1,1.9c-3.5,0-6.4-1.1-8.7-3.2c-2.2-2.1-3.4-4.8-3.4-8.1c0-3.5,1.1-6.3,3.3-8.2c2.2-1.9,5.1-3.1,8.7-3.6
		L830.7,885.9z M817.2,903.3c1.4,1.1,3,1.6,4.8,1.6c2.3,0,4.4-0.5,6.6-1.6c3.6-1.7,5.3-4.6,5.3-8.5v-5.2c-0.8,0.5-1.8,0.9-3,1.3
		c-1.2,0.3-2.4,0.6-3.6,0.7l-3.9,0.5c-2.3,0.3-4.1,0.8-5.2,1.5c-2,1.1-3,2.9-3,5.3C815.1,900.7,815.8,902.2,817.2,903.3z"/>
	<path class="st0" d="M872.6,856.7h23.4c4.6,0,8.4,1.3,11.2,3.9c2.8,2.6,4.3,6.3,4.3,11.1c0,4.1-1.3,7.6-3.8,10.7
		c-2.5,3-6.4,4.5-11.7,4.5h-16.3V909h-7.1V856.7z M900.1,863.9c-1.6-0.7-3.7-1.1-6.4-1.1h-14v18.1h14c3.2,0,5.7-0.7,7.7-2
		s3-3.7,3-7.2C904.4,867.9,903,865.3,900.1,863.9z"/>
	<path class="st0" d="M920,870.9h6.1v6.6c0.5-1.3,1.7-2.8,3.7-4.7c1.9-1.8,4.2-2.8,6.7-2.8c0.1,0,0.3,0,0.6,0c0.3,0,0.8,0.1,1.5,0.1
		v6.8c-0.4-0.1-0.7-0.1-1.1-0.1c-0.3,0-0.7,0-1.1,0c-3.2,0-5.7,1-7.5,3.1c-1.7,2.1-2.6,4.5-2.6,7.2v22H920V870.9z"/>
	<path class="st0" d="M971.8,874.7c3.4,3.3,5.1,8.1,5.1,14.5c0,6.1-1.5,11.2-4.5,15.2s-7.6,6-13.8,6c-5.2,0-9.4-1.8-12.4-5.3
		c-3.1-3.5-4.6-8.3-4.6-14.3c0-6.4,1.6-11.5,4.8-15.3s7.6-5.7,13-5.7C964.2,869.8,968.4,871.4,971.8,874.7z M967.8,900
		c1.6-3.2,2.3-6.8,2.3-10.7c0-3.6-0.6-6.5-1.7-8.7c-1.8-3.5-4.9-5.3-9.2-5.3c-3.9,0-6.7,1.5-8.5,4.5c-1.8,3-2.6,6.6-2.6,10.8
		c0,4.1,0.9,7.4,2.6,10.1c1.8,2.7,4.6,4.1,8.4,4.1C963.3,904.9,966.2,903.3,967.8,900z"/>
	<path class="st0" d="M1005.9,872.4c1.2,0.8,2.4,2,3.7,3.6v-4.8h5.9v34.7c0,4.8-0.7,8.7-2.1,11.5c-2.7,5.2-7.7,7.8-15,7.8
		c-4.1,0-7.5-0.9-10.3-2.8c-2.8-1.8-4.4-4.7-4.7-8.6h6.5c0.3,1.7,0.9,3,1.8,4c1.4,1.4,3.7,2.1,6.8,2.1c4.9,0,8.1-1.7,9.6-5.2
		c0.9-2,1.3-5.7,1.2-10.9c-1.3,1.9-2.8,3.4-4.6,4.3c-1.8,1-4.2,1.4-7.1,1.4c-4.1,0-7.7-1.5-10.8-4.4s-4.6-7.8-4.6-14.6
		c0-6.4,1.6-11.4,4.7-15c3.1-3.6,6.9-5.4,11.3-5.4C1001.1,870.2,1003.7,870.9,1005.9,872.4z M1006.7,879.3c-1.9-2.3-4.4-3.4-7.4-3.4
		c-4.5,0-7.6,2.1-9.2,6.3c-0.9,2.3-1.3,5.2-1.3,8.9c0,4.3,0.9,7.6,2.6,9.8c1.7,2.2,4.1,3.4,7,3.4c4.6,0,7.8-2.1,9.7-6.2
		c1-2.4,1.6-5.1,1.6-8.2C1009.6,885.1,1008.6,881.6,1006.7,879.3z"/>
	<path class="st0" d="M1025.5,870.9h6.1v6.6c0.5-1.3,1.7-2.8,3.7-4.7c1.9-1.8,4.2-2.8,6.7-2.8c0.1,0,0.3,0,0.6,0
		c0.3,0,0.8,0.1,1.5,0.1v6.8c-0.4-0.1-0.7-0.1-1.1-0.1c-0.3,0-0.7,0-1.1,0c-3.2,0-5.7,1-7.5,3.1c-1.7,2.1-2.6,4.5-2.6,7.2v22h-6.4
		V870.9z"/>
	<path class="st0" d="M1070.1,885.9c1.5-0.2,2.5-0.8,3-1.8c0.3-0.6,0.4-1.4,0.4-2.5c0-2.2-0.8-3.8-2.3-4.8c-1.6-1-3.8-1.5-6.7-1.5
		c-3.3,0-5.7,0.9-7.1,2.7c-0.8,1-1.3,2.5-1.5,4.5h-6c0.1-4.7,1.6-8,4.6-9.8c2.9-1.8,6.3-2.8,10.2-2.8c4.5,0,8.1,0.9,10.9,2.6
		c2.8,1.7,4.2,4.4,4.2,8v22c0,0.7,0.1,1.2,0.4,1.6c0.3,0.4,0.8,0.6,1.7,0.6c0.3,0,0.6,0,1-0.1c0.4,0,0.7-0.1,1.1-0.2v4.7
		c-1,0.3-1.8,0.5-2.3,0.5c-0.5,0.1-1.2,0.1-2.1,0.1c-2.2,0-3.8-0.8-4.8-2.4c-0.5-0.8-0.9-2-1.1-3.5c-1.3,1.7-3.2,3.2-5.6,4.5
		c-2.4,1.3-5.1,1.9-8.1,1.9c-3.5,0-6.4-1.1-8.7-3.2c-2.2-2.1-3.4-4.8-3.4-8.1c0-3.5,1.1-6.3,3.3-8.2c2.2-1.9,5.1-3.1,8.7-3.6
		L1070.1,885.9z M1056.5,903.3c1.4,1.1,3,1.6,4.8,1.6c2.3,0,4.4-0.5,6.6-1.6c3.6-1.7,5.3-4.6,5.3-8.5v-5.2c-0.8,0.5-1.8,0.9-3,1.3
		c-1.2,0.3-2.4,0.6-3.6,0.7l-3.9,0.5c-2.3,0.3-4.1,0.8-5.2,1.5c-2,1.1-3,2.9-3,5.3C1054.5,900.7,1055.2,902.2,1056.5,903.3z"/>
	<path class="st0" d="M1090.2,870.9h6.3v5.4c1.5-1.9,2.9-3.2,4.1-4.1c2.1-1.4,4.5-2.2,7.2-2.2c3,0,5.5,0.7,7.3,2.2
		c1,0.9,2,2.1,2.9,3.8c1.4-2,3.1-3.6,5-4.5c1.9-1,4.1-1.5,6.5-1.5c5.1,0,8.6,1.9,10.5,5.6c1,2,1.5,4.7,1.5,8.1V909h-6.7v-26.5
		c0-2.5-0.6-4.3-1.9-5.2c-1.3-0.9-2.8-1.4-4.7-1.4c-2.5,0-4.7,0.8-6.5,2.5c-1.8,1.7-2.7,4.5-2.7,8.4V909h-6.5v-24.9
		c0-2.6-0.3-4.5-0.9-5.7c-1-1.8-2.8-2.7-5.5-2.7c-2.4,0-4.6,0.9-6.6,2.8c-2,1.9-3,5.3-3,10.2V909h-6.4V870.9z"/>
</g>
</svg>
