<?xml version="1.0" encoding="utf-8"?>
<!-- Generator: Adobe Illustrator 26.5.0, SVG Export Plug-In . SVG Version: 6.00 Build 0)  -->
<svg version="1.1" id="Layer_1" xmlns="http://www.w3.org/2000/svg" xmlns:xlink="http://www.w3.org/1999/xlink" x="0px" y="0px"
	 viewBox="0 0 650 650" style="enable-background:new 0 0 650 650;" xml:space="preserve">
<style type="text/css">
	.st0{fill:url(#SVGID_1_);}
	.st1{fill:url(#SVGID_00000008137407252841266090000005936314131517597837_);}
	.st2{fill:url(#SVGID_00000061443854498710350780000005582214261375256726_);}
	.st3{fill:#FFFFFF;}
</style>
<g>
	
		<linearGradient id="SVGID_1_" gradientUnits="userSpaceOnUse" x1="325.0194" y1="-1.947134e-02" x2="325.0194" y2="649.9805" gradientTransform="matrix(1 0 0 1 -1.943686e-02 1.947134e-02)">
		<stop  offset="0" style="stop-color:#64C3FF"/>
		<stop  offset="0.5104" style="stop-color:#E1A68D"/>
		<stop  offset="1" style="stop-color:#EAEC5E"/>
	</linearGradient>
	<path class="st0" d="M325,10c174,0,315,141,315,315S499,640,325,640S10,499,10,325S151,10,325,10 M325,0
		c-43.9,0-86.4,8.6-126.5,25.5C159.8,41.9,125,65.3,95.2,95.2s-53.3,64.6-69.6,103.3C8.6,238.6,0,281.1,0,325s8.6,86.4,25.5,126.5
		c16.4,38.7,39.8,73.5,69.6,103.3c29.8,29.8,64.6,53.3,103.3,69.6C238.6,641.4,281.1,650,325,650s86.4-8.6,126.5-25.5
		c38.7-16.4,73.5-39.8,103.3-69.6c29.8-29.8,53.3-64.6,69.6-103.3C641.4,411.4,650,368.9,650,325s-8.6-86.4-25.5-126.5
		c-16.4-38.7-39.8-73.5-69.6-103.3s-64.6-53.3-103.3-69.6C411.4,8.6,368.9,0,325,0L325,0z"/>
	
		<radialGradient id="SVGID_00000011724390289812164970000013949153387511712428_" cx="325.0194" cy="324.9805" r="315" gradientTransform="matrix(1 0 0 1 -1.943686e-02 1.947134e-02)" gradientUnits="userSpaceOnUse">
		<stop  offset="0" style="stop-color:#FFFFFF"/>
		<stop  offset="1" style="stop-color:#323232"/>
	</radialGradient>
	<circle style="fill:url(#SVGID_00000011724390289812164970000013949153387511712428_);" cx="325" cy="325" r="315"/>
	
		<radialGradient id="SVGID_00000059307872776762967530000002523007745037411467_" cx="325.0196" cy="334.9804" r="302.6921" gradientTransform="matrix(1 0 0 1 -1.943686e-02 1.947134e-02)" gradientUnits="userSpaceOnUse">
		<stop  offset="0" style="stop-color:#FFFF00"/>
		<stop  offset="1" style="stop-color:#FF0000"/>
	</radialGradient>
	<polygon style="fill:url(#SVGID_00000059307872776762967530000002523007745037411467_);" points="325,163.4 430.9,34.6 
		429.3,201.4 593.2,170.8 484.8,297.5 630,379.4 465.5,406.8 524.1,562.9 380.5,478.1 325,635.4 269.5,478.1 125.9,562.9 
		184.5,406.8 20,379.4 165.2,297.5 56.8,170.8 220.7,201.4 219.1,34.6 	"/>
</g>
<g>
	<path d="M422.3,414.7c2.4-2.2,5.3-5,7.6-6.8l-0.1-0.1c-2.6,1.2-5.5,2.3-8.8,3.5l-11.4,4.2l-1.5-1.8l6.2-10.1c1.8-3,3.6-5.7,5.3-8
		l0-0.1c-2.3,1.8-5.4,4.2-8.3,6.4l-8.2,6l-1.9-2.2l19.1-13.9l2.5,3l-6.2,10.4c-1.6,2.6-3.1,4.9-4.6,6.9l0.1,0.1
		c2.2-1.1,4.7-2.1,7.7-3.2l11.4-4.1l2.5,3l-17.1,16.3l-1.9-2.3L422.3,414.7z"/>
	<path d="M432.3,435.6c-1.3,1.1-2.5,2.1-3.5,3.1l-1.8-2.1l2-1.9l0-0.1c-1.6,0.3-4.1,0-6-2.3c-1.7-2-2.6-5.4,1.9-9.2l7.6-6.4l2,2.4
		l-7.2,6c-2.5,2.1-3.5,4.2-1.7,6.4c1.3,1.6,3.3,1.8,4.8,1.3c0.5-0.2,1-0.4,1.4-0.8l8-6.7l2,2.4L432.3,435.6z"/>
	<path d="M434.2,440.1c0.1,1.1,0.7,2.7,1.7,3.9c1.4,1.7,3,1.8,4,0.9c1.1-0.9,1.2-2.1,0.4-4.4c-1.1-3-0.8-5.2,0.8-6.5
		c2.1-1.8,5.2-1.5,7.6,1.3c1.1,1.3,1.7,2.8,1.9,3.9l-2.2,0.9c-0.1-0.8-0.5-2.1-1.5-3.3c-1.2-1.4-2.6-1.5-3.6-0.7
		c-1.1,0.9-0.9,2.1-0.1,4.3c1,3,0.9,5.1-1.1,6.7c-2.3,1.9-5.4,1.5-8-1.6c-1.2-1.4-1.9-3-2.2-4.4L434.2,440.1z"/>
	<path d="M441,453.1l13-10.9l2,2.4l-13,10.9L441,453.1z M459.8,441.8c-0.8,0.7-1.9,0.7-2.7-0.3c-0.7-0.8-0.5-2,0.3-2.6
		c0.8-0.7,2-0.6,2.7,0.2C460.8,440,460.6,441.1,459.8,441.8z"/>
	<path d="M454.5,468.2c-0.8-0.3-2.4-1.4-3.9-3.1c-3.3-3.9-2.8-8.7,1.2-12c4-3.4,9.2-3,12.7,1.2c1.2,1.4,1.9,2.9,2.1,3.8l-2.3,1
		c-0.2-0.8-0.6-2-1.7-3.3c-2.5-3-6-2.7-8.8-0.5c-3,2.5-3.2,6-1.1,8.6c1.1,1.3,2.2,1.9,3.1,2.4L454.5,468.2z"/>
	<path d="M376.5,423c0.1-0.9,0.2-1.8,0.4-3.2c-2.8-0.3-4.8-1.6-6.5-3.5c-2.9-3.5-2.3-7.5,0.4-9.8c2.5-2.1,5.4-2,8.3-0.9l0.1-0.1
		c0.4-1.9,1.2-3.6,2.5-4.7c2.2-1.8,5.8-2.2,8.3,0.9c1.9,2.3,1.9,5.3-0.5,7.2c-1.9,1.6-4.3,1.8-8.2,0.1l-0.1,0.1
		c-0.5,3-1,6.4-1.4,8.6c2-0.2,4.2-1.1,6.7-2.7l1.8,2.1c-3.2,1.9-6.2,3-8.9,3c-0.2,1.8-0.4,3.6-0.7,5.7L376.5,423z M377.2,417.5
		c0.3-2.1,0.8-5.9,1.4-9.9c-1.4-0.4-3.7-0.8-5.6,0.7c-2.1,1.7-2.4,4.6-0.5,6.8C373.8,416.7,375.6,417.5,377.2,417.5z M383.7,402.8
		c-1.3,1.1-1.8,2.5-2.1,4.1c2.6,0.9,4.5,1.3,6.1,0c1.1-0.9,1.8-2.6,0.6-4C386.9,401.4,385.1,401.6,383.7,402.8z"/>
	<path d="M403.2,418.6c1.4,1.2,3,2.8,4.5,4.6c2.8,3.4,4,6.4,3.9,9.2c-0.1,2.8-1.4,5.5-4.4,8c-3,2.5-6.1,3.6-9.2,3.3
		c-3.1-0.3-6.4-2.3-9.3-5.8c-1.4-1.7-2.5-3.1-3.3-4.4L403.2,418.6z M389.2,434.4c0.4,0.7,1.1,1.6,1.8,2.5c4.2,5,9.2,5.4,14.1,1.3
		c4.3-3.5,5-8.2,0.8-13.2c-1-1.2-1.9-2-2.5-2.5L389.2,434.4z"/>
	<path d="M406.4,458.5l1.5-1.6l-0.1-0.1c-1.6,0.1-3.7-0.5-5.3-2.3c-2.2-2.6-1.5-5.5,0.4-7.1c3.1-2.6,7.2-1.3,11.4,3.8l0.3-0.2
		c1.1-0.9,2.8-2.8,0.5-5.5c-1-1.2-2.4-2.2-3.8-2.6l1.1-1.8c1.6,0.5,3.4,1.7,4.7,3.3c3.3,4,1.4,7.2-1.2,9.4l-4.9,4.1
		c-1.1,0.9-2.2,1.9-2.9,2.8L406.4,458.5z M412.7,452.6c-2.1-2.6-5-5.2-7.5-3c-1.5,1.3-1.4,2.9-0.4,4.1c1.4,1.7,3.4,1.9,4.8,1.3
		c0.3-0.1,0.6-0.3,0.9-0.5L412.7,452.6z"/>
	<path d="M420.6,456.3c1.3-1.1,2.4-2.1,3.4-3.1l1.8,2.1l-2,1.9l0,0.1c1.8-0.4,4.2,0.1,6,2.2c1.5,1.8,2.8,5.5-1.7,9.2l-7.7,6.5
		l-2-2.4l7.5-6.3c2.1-1.8,3.2-4,1.3-6.2c-1.3-1.6-3.4-1.8-5.1-1.1c-0.4,0.1-0.8,0.4-1.2,0.8l-7.8,6.5l-2-2.4L420.6,456.3z"/>
	<path d="M431.9,488c-0.8-0.3-2.4-1.4-3.9-3.1c-3.3-3.9-2.8-8.7,1.2-12c4-3.4,9.2-3,12.7,1.2c1.2,1.4,1.9,2.9,2.1,3.8l-2.3,1
		c-0.2-0.8-0.6-2-1.7-3.3c-2.5-3-6-2.7-8.8-0.5c-3,2.5-3.2,6-1.1,8.6c1.1,1.3,2.2,1.9,3.1,2.4L431.9,488z"/>
	<path d="M440.8,487.2c-3.1,2.7-2.8,5.9-0.8,8.2c1.4,1.7,2.6,2.5,3.7,3l-1.4,1.8c-1.1-0.5-2.7-1.6-4.4-3.6c-3.4-4-2.7-8.6,1.2-11.9
		c3.9-3.3,8.9-3.6,12.1,0.2c3.6,4.2,0.8,8.5-1.6,10.5c-0.5,0.4-0.9,0.7-1.2,0.8L440.8,487.2z M448.3,492.7c1.5-1.2,3.3-3.8,1.1-6.5
		c-2-2.4-5.1-1.6-6.9-0.4L448.3,492.7z"/>
</g>
<g>
	<path d="M436.9,357.9l-2-27.1l3.5,0.6l0.8,13.7c0.2,3.4,0.3,6.7,0.3,9.3l0.1,0c0.9-2.5,2.2-5.4,3.7-8.6l5.8-12.5l3.5,0.6l0.8,13.7
		c0.2,3.2,0.3,6.4,0.2,9.2l0.1,0c1-2.8,2.3-5.5,3.7-8.6l5.7-12.5l3.4,0.6l-11.9,24.6l-3.5-0.6l-0.9-14.1c-0.2-3.5-0.3-6.1-0.2-8.8
		l-0.1,0c-0.9,2.5-1.9,4.9-3.5,8.1l-6.1,12.9L436.9,357.9z"/>
	<path d="M482.4,356.2c-1.2,6.9-6.5,9-11,8.3c-5-0.9-8.3-5.3-7.2-11.2c1.1-6.2,5.8-9.2,11-8.3C480.5,346,483.4,350.5,482.4,356.2z
		 M467.6,353.8c-0.7,4.1,1.1,7.6,4.4,8.2c3.2,0.6,6.2-2,6.9-6.2c0.6-3.2-0.3-7.4-4.3-8.1C470.6,346.8,468.2,350.2,467.6,353.8z"/>
	<path d="M487.3,353.6c0.4-2.2,0.7-4.1,0.9-5.8l3,0.5l-0.5,3.7l0.2,0c1.3-2.4,3.6-3.6,5.9-3.2c0.4,0.1,0.6,0.2,0.9,0.3l-0.6,3.2
		c-0.3-0.1-0.7-0.2-1.1-0.3c-2.4-0.4-4.4,1.1-5.3,3.5c-0.2,0.4-0.3,1-0.4,1.6l-1.8,9.9l-3.3-0.6L487.3,353.6z"/>
	<path d="M502.9,359.2L502.9,359.2c0.7-0.6,1.5-1.3,2.1-1.8l6.6-5.5l4.1,0.7l-8.5,6.4l6.3,12.4l-4.1-0.7l-4.9-10.1l-2.1,1.6l-1.2,7
		l-3.3-0.6l4.8-27.3l3.3,0.6L502.9,359.2z"/>
</g>
<g>
	<path d="M419.4,284.5c-0.8,1.2-2.6,3-5.4,4.6c-6.4,3.7-13.6,2.4-17.9-5c-4.1-7.1-2.1-14.8,5-18.9c2.8-1.6,5-2.1,6-2.1l0.7,2.8
		c-1.4,0.1-3.3,0.6-5.1,1.7c-5.3,3.1-6.9,8.6-3.5,14.5c3.2,5.6,8.5,7.3,14.1,4.1c1.8-1,3.4-2.5,4.3-3.7L419.4,284.5z"/>
	<path d="M409.5,259.2l3-1.7l13.9,24l-3,1.7L409.5,259.2z"/>
	<path d="M441.4,261.7c3.5,6.1,0.8,11.1-3.1,13.4c-4.4,2.6-9.7,1.3-12.7-3.9c-3.2-5.5-1.4-10.8,3.1-13.4
		C433.4,255.1,438.5,256.7,441.4,261.7z M428.5,269.4c2.1,3.6,5.7,5.1,8.6,3.4c2.8-1.6,3.4-5.5,1.3-9.2c-1.6-2.8-5-5.5-8.5-3.5
		S426.7,266.3,428.5,269.4z"/>
	<path d="M441.4,244.7l2.7,4.7l4.3-2.5l1.3,2.3l-4.3,2.5l5.1,8.8c1.2,2,2.4,2.8,4.1,1.9c0.8-0.4,1.3-0.9,1.6-1.2l1.4,2.2
		c-0.4,0.6-1.3,1.3-2.4,1.9c-1.4,0.8-2.8,1-3.9,0.6c-1.4-0.4-2.5-1.7-3.6-3.6l-5.2-8.9l-2.5,1.5l-1.3-2.3l2.5-1.5l-2.3-3.9
		L441.4,244.7z"/>
	<path d="M447.3,237.4l3-1.7l5.9,10.2l0.1,0c0-1.1,0.3-2.3,0.9-3.3c0.6-1,1.4-2,2.6-2.6c2.2-1.3,6.5-1.9,9.8,3.7l5.6,9.7l-3,1.7
		l-5.4-9.4c-1.5-2.6-3.8-4.3-6.6-2.7c-1.9,1.1-2.7,3.3-2.3,5.3c0.1,0.5,0.3,1,0.6,1.5l5.7,9.9l-3,1.7L447.3,237.4z"/>
	<path d="M471.2,227.6c0.6,1,0.3,2.2-0.8,2.9c-1,0.6-2.3,0.2-2.8-0.8c-0.6-1-0.3-2.3,0.8-2.9C469.4,226.2,470.5,226.6,471.2,227.6z
		 M480,250.5l-9.5-16.4l3-1.7l9.5,16.4L480,250.5z"/>
	<path d="M481,234c-1-1.7-1.8-3.1-2.7-4.4l2.6-1.5l1.7,2.6l0.1,0c-0.1-2,0.9-4.6,3.6-6.2c2.3-1.3,6.6-2,9.8,3.6l5.6,9.8l-3,1.7
		l-5.5-9.4c-1.5-2.6-3.8-4.3-6.6-2.7c-2,1.1-2.7,3.4-2.2,5.4c0.1,0.5,0.3,1,0.6,1.5l5.7,9.8l-3,1.7L481,234z"/>
	<path d="M511.3,210.6c0.6,1.2,1.3,2.6,2.5,4.6l5.5,9.5c2.2,3.8,2.8,6.5,2,8.8c-0.7,2.4-2.8,4.2-4.8,5.4c-2,1.1-4.4,1.9-6.2,1.8
		l-0.6-2.7c1.5,0.1,3.5-0.3,5.5-1.5c3-1.8,4.4-4.6,2-8.8l-1.1-1.8l-0.1,0c0,2.1-1.1,4.3-3.6,5.8c-4.1,2.3-9,0.6-11.6-4
		c-3.2-5.6-1.4-10.8,2.4-13c2.8-1.6,5.3-1.1,6.8-0.1l0.1,0l-1.3-2.5L511.3,210.6z M512,218.8c-0.3-0.5-0.6-0.9-1-1.3
		c-1.5-1.4-3.8-2-6-0.7c-2.8,1.6-3.5,5.2-1.3,9c1.9,3.2,5,5,8.2,3.1c1.8-1.1,2.8-3.2,2.4-5.4c-0.1-0.6-0.4-1.2-0.7-1.7L512,218.8z"
		/>
</g>
<g>
	<path d="M335.4,257.4l4.9-13.3l2.7,1l-3.7,10.1l8.2,3l3.4-9.4l2.6,1l-3.4,9.4l11.2,4.1l-1.2,3.2L335.4,257.4z"/>
	<path d="M363,230.4c6.6,2.4,7.8,8,6.2,12.3c-1.8,4.8-6.6,7.2-12.2,5.2c-5.9-2.2-8-7.3-6.2-12.2C352.6,230.5,357.6,228.4,363,230.4z
		 M358.1,244.5c3.9,1.4,7.6,0.2,8.8-2.9c1.1-3.1-0.9-6.5-4.9-7.9c-3-1.1-7.4-1-8.8,2.8C351.8,240.4,354.7,243.3,358.1,244.5z"/>
	<path d="M370.4,210.2c6.6,2.4,7.8,8,6.2,12.3c-1.8,4.8-6.6,7.2-12.2,5.2c-5.9-2.2-8-7.3-6.2-12.2
		C360,210.3,364.9,208.2,370.4,210.2z M365.4,224.4c3.9,1.4,7.6,0.2,8.8-2.9c1.1-3.1-0.9-6.5-4.9-7.9c-3-1.1-7.4-1-8.8,2.8
		S362,223.2,365.4,224.4z"/>
	<path d="M360.4,184.6l21.5,7.8c1.6,0.6,3.4,1.2,4.6,1.5l-1.1,2.9l-3.1-1l0,0.1c1.6,1.7,2.3,4.4,1.3,7.3c-1.6,4.3-6.4,6.3-11.8,4.3
		c-5.9-2.1-8.2-7.1-6.6-11.4c1-2.7,2.9-4.1,4.7-4.4l0-0.1l-10.6-3.9L360.4,184.6z M374.8,193.5c-0.4-0.1-1-0.3-1.4-0.3
		c-2.2-0.3-4.6,0.9-5.4,3.3c-1.2,3.3,1,6.4,4.9,7.8c3.6,1.3,7.2,0.6,8.5-2.9c0.8-2.2,0.1-4.7-2.1-6.1c-0.4-0.3-0.8-0.5-1.3-0.7
		L374.8,193.5z"/>
	<path d="M392.3,178.1l-27-2.7l1.2-3.4l13.6,1.6c3.4,0.4,6.7,0.9,9.2,1.3l0-0.1c-2.3-1.3-5-3.1-7.9-5.1l-11.3-7.8l1.2-3.3l13.7,1.6
		c3.2,0.4,6.4,0.8,9.1,1.4l0-0.1c-2.5-1.5-5-3.2-7.8-5.1l-11.3-7.8l1.2-3.3l22.2,16l-1.2,3.3l-14-1.6c-3.4-0.4-6-0.7-8.7-1.3l0,0.1
		c2.3,1.3,4.5,2.8,7.4,4.9l11.6,8.2L392.3,178.1z"/>
	<path d="M405.2,142.6l-2.3-0.6l0,0.1c1,1.5,1.6,3.9,0.7,6.4c-1.3,3.6-4.5,4.5-7.1,3.6c-4.3-1.6-5.3-6.2-2.7-13.1l-0.4-0.1
		c-1.5-0.5-4.3-1.1-5.6,2.5c-0.6,1.7-0.7,3.6-0.4,5.1l-2.4,0c-0.4-1.8-0.3-4.2,0.5-6.4c2-5.4,6.2-5.4,9.7-4.1l6.6,2.4
		c1.5,0.6,3.1,1,4.4,1.3L405.2,142.6z M396,139.7c-1.4,3.5-2.2,7.7,1.3,9c2.1,0.8,3.6-0.3,4.2-1.9c0.8-2.3-0.1-4.3-1.4-5.4
		c-0.3-0.2-0.6-0.4-1-0.6L396,139.7z"/>
	<path d="M390.6,127.4l11.9-0.1c1.3,0,2.9,0.1,4,0.2l0-0.1c-0.9-0.7-2.2-1.6-3.3-2.5l-9.1-7.3l1.2-3.4l10.9,9.5
		c5.3,4.5,7.8,7.2,8.9,10.1c0.8,2.1,0.8,3.9,0.7,4.7l-3-0.2c0-0.9-0.1-2.2-0.6-3.4c-0.4-1.1-1.2-2.7-2.6-4c-0.3-0.3-0.5-0.5-0.7-0.5
		c-0.2-0.1-0.5-0.1-0.9-0.1l-18.8,0.6L390.6,127.4z"/>
	<path d="M410.7,117.2c1-0.7,2.2-2.2,2.8-3.8c0.9-2.4,0.1-3.9-1.4-4.4c-1.5-0.6-2.7,0-4.5,2.1c-2.3,2.8-4.6,3.6-6.7,2.9
		c-2.9-1-4.4-4.2-3-8c0.7-1.8,1.7-3.2,2.7-4l2.1,1.7c-0.7,0.5-1.8,1.6-2.4,3.3c-0.7,1.9,0,3.4,1.3,3.9c1.5,0.5,2.5-0.3,4.2-2.3
		c2.3-2.7,4.4-3.7,7.1-2.7c3.1,1.1,4.4,4.4,2.9,8.6c-0.7,1.9-1.8,3.6-3,4.6L410.7,117.2z"/>
</g>
<g>
	<path d="M253.3,120.9l-3.5-9.6l-8.9,3.2l3.9,10.7l-2.7,1l-5.1-13.9l24.8-9l4.9,13.4l-2.7,1l-3.7-10.2l-7.8,2.8l3.5,9.6L253.3,120.9
		z"/>
	<path d="M275.1,136l-21.5,7.8c-1.6,0.6-3.4,1.3-4.5,1.8l-1.1-2.9l3-1.3l0-0.1c-2.3-0.3-4.6-1.9-5.7-4.8c-1.6-4.3,0.9-8.9,6.3-10.9
		c5.9-2.2,10.9,0.2,12.4,4.5c1,2.7,0.4,5-0.8,6.3l0,0.1l10.6-3.9L275.1,136z M258.4,138.4c0.4-0.1,0.9-0.4,1.3-0.6
		c1.9-1.2,2.9-3.6,2-6c-1.2-3.3-4.9-4.3-8.8-2.8c-3.6,1.3-5.9,4.2-4.7,7.6c0.8,2.2,2.9,3.6,5.6,3.3c0.5-0.1,0.9-0.2,1.4-0.4
		L258.4,138.4z"/>
	<path d="M261.3,163.9c-1.8,0.7-3.4,1.3-4.8,1.9l-1-2.9l2.8-1.2l0-0.1c-1.7-0.3-4.3-1.5-5.4-4.7c-1-2.8-0.7-6.7,5.6-9l10.4-3.8
		l1.2,3.2l-9.8,3.6c-3.4,1.2-5.3,3.1-4.2,6c0.8,2.2,2.8,3.1,4.5,3.2c0.5,0,1.2-0.1,1.8-0.3l10.9-4l1.2,3.2L261.3,163.9z"/>
	<path d="M263.7,183.5c-0.7-0.7-2-2.3-2.9-4.7c-2-5.4,0.4-10.2,5.8-12.2c5.5-2,10.8,0.3,12.9,6.1c0.7,1.9,0.8,3.8,0.7,4.8l-2.8,0.2
		c0.2-0.9,0.1-2.3-0.5-4.1c-1.5-4.1-5.3-5.2-9-3.8c-4.1,1.5-5.7,5.1-4.4,8.6c0.7,1.8,1.6,2.9,2.3,3.6L263.7,183.5z"/>
	<path d="M268,197.3l2.1-1.1l0-0.1c-1.8-0.5-3.7-1.9-4.6-4.5c-1.3-3.6,0.6-6.4,3.1-7.3c4.3-1.6,8,1.4,10.5,8.3l0.4-0.1
		c1.5-0.5,4-1.9,2.6-5.5c-0.6-1.7-1.7-3.2-3-4.1l1.9-1.5c1.5,1.1,2.9,3,3.7,5.3c2,5.4-1.2,8.1-4.8,9.4l-6.6,2.4
		c-1.5,0.6-3,1.2-4.2,1.8L268,197.3z M276.9,193.6c-1.2-3.6-3.3-7.3-6.7-6.1c-2.1,0.8-2.6,2.5-2,4.2c0.8,2.3,2.8,3.2,4.5,3.2
		c0.4,0,0.8-0.1,1.1-0.2L276.9,193.6z"/>
	<path d="M295.1,200.6l-5.1,1.9l1.7,4.6l-2.5,0.9l-1.7-4.6l-9.6,3.5c-2.2,0.8-3.2,1.9-2.6,3.7c0.3,0.8,0.6,1.4,0.9,1.8l-2.4,1
		c-0.5-0.5-1-1.5-1.5-2.7c-0.5-1.5-0.5-2.9,0.1-4c0.6-1.3,2.1-2.2,4.2-2.9l9.7-3.5l-1-2.8l2.5-0.9l1,2.8l4.3-1.5L295.1,200.6z"/>
	<path d="M275.2,217.2l17.8-6.5l1.2,3.2l-17.8,6.5L275.2,217.2z M299.3,212.5c-1.1,0.4-2.3,0-2.7-1.3c-0.4-1.1,0.2-2.3,1.3-2.7
		c1.1-0.4,2.3,0.1,2.8,1.3C301,211,300.4,212.1,299.3,212.5z"/>
	<path d="M293.2,238.6c-6.6,2.4-11.1-1.1-12.7-5.4c-1.8-4.8,0.4-9.8,6-11.8c5.9-2.2,10.9,0.5,12.6,5.4
		C301.1,231.8,298.6,236.6,293.2,238.6z M287.9,224.6c-3.9,1.4-6,4.7-4.9,7.9c1.1,3.1,4.9,4.3,8.9,2.9c3-1.1,6.3-4,4.9-7.8
		C295.4,223.7,291.3,223.3,287.9,224.6z"/>
	<path d="M298.6,241.2c1.8-0.7,3.3-1.3,4.8-1.9l1,2.9l-2.9,1.3l0,0.1c2,0.3,4.4,1.7,5.5,4.7c0.9,2.5,0.8,6.8-5.3,9l-10.6,3.9
		l-1.2-3.2l10.2-3.7c2.9-1,4.9-3,3.8-6c-0.8-2.1-2.9-3.2-4.9-3.1c-0.5,0-1,0.1-1.6,0.3l-10.7,3.9l-1.2-3.2L298.6,241.2z"/>
</g>
<g>
	<path d="M181.5,204.9l-6.2-3.6l1.3-2.2l15.1,8.7l-1.3,2.2l-6.2-3.6l-10.5,18.2l-2.7-1.5L181.5,204.9z"/>
	<path d="M186.6,218.6c1-1.7,1.8-3.2,2.5-4.6l2.3,1.3l-1.6,2.9l0.1,0.1c1.8-1.6,4.1-1.9,5.9-0.9c0.3,0.2,0.5,0.3,0.7,0.5l-1.5,2.5
		c-0.2-0.2-0.5-0.4-0.9-0.6c-1.9-1.1-4-0.4-5.6,1.4c-0.3,0.3-0.6,0.7-0.8,1.2l-4.5,7.8l-2.6-1.5L186.6,218.6z"/>
	<path d="M190.8,234.5l8.5-14.7l2.7,1.5l-8.5,14.7L190.8,234.5z M204.6,217.4c-0.5,0.9-1.6,1.3-2.6,0.7c-0.9-0.5-1.2-1.7-0.7-2.6
		c0.5-0.9,1.7-1.3,2.6-0.7C204.9,215.4,205.1,216.5,204.6,217.4z"/>
	<path d="M197.8,238.5c0.6-1,1.6-2.4,2.3-3.7l10.2-17.7l2.6,1.5l-5.3,9.2l0.1,0c1.9-1.1,4.2-1.2,6.6,0.2c3.6,2.1,4.5,6.6,1.9,11.1
		c-3,5.2-7.8,5.9-11.1,4.1c-2.1-1.2-3.3-3-3.3-5.6l-0.1-0.1l-1.5,2.4L197.8,238.5z M203.9,234.2c-0.2,0.3-0.3,0.7-0.4,1
		c-0.6,2.1,0.3,4.3,2.2,5.4c2.8,1.6,5.8,0.3,7.7-3.1c1.7-2.9,1.6-6.3-1.2-8c-1.8-1.1-4.2-0.8-6,0.9c-0.2,0.3-0.5,0.6-0.8,1
		L203.9,234.2z"/>
	<path d="M223.2,253.2l0.9-2l-0.1-0.1c-1.5,0.7-3.7,0.8-5.7-0.4c-3-1.7-3.3-4.7-2.1-6.8c2-3.5,6.3-3.7,12-0.4l0.2-0.3
		c0.7-1.2,1.6-3.6-1.4-5.3c-1.4-0.8-3-1.2-4.4-1.1l0.4-2.1c1.7-0.1,3.7,0.4,5.6,1.5c4.5,2.6,3.8,6.3,2.1,9.2l-3.2,5.5
		c-0.7,1.3-1.4,2.6-1.8,3.7L223.2,253.2z M227.2,245.5c-2.9-1.7-6.5-3.1-8.1-0.3c-1,1.7-0.3,3.2,1,4c1.9,1.1,3.8,0.6,5-0.4
		c0.2-0.2,0.5-0.5,0.6-0.8L227.2,245.5z"/>
	<path d="M242.2,235.4l2.7,1.5l-12.4,21.5l-2.7-1.5L242.2,235.4z"/>
	<path d="M123.3,228.9c-1.4-0.3-4.2-0.9-6.9-2.5c-3.1-1.8-5.2-4-6.1-7.1c-0.8-2.7-0.3-6.1,1.5-9.3c3.5-6.1,10.3-8.1,17.2-4.2
		c2.4,1.4,3.9,2.9,4.5,3.9l-1.9,1.8c-0.8-1.1-1.9-2.3-4-3.5c-5-2.9-10-1.7-13,3.5c-3,5.2-1.6,10,3.1,12.8c1.7,1,3.1,1.4,3.8,1.5
		l3.5-6.1l-4.2-2.4l1.2-2.1l6.7,3.9L123.3,228.9z"/>
	<path d="M144.4,232.4c-3.1,5.4-8.3,5.6-11.8,3.6c-4-2.3-5.4-7-2.7-11.6c2.8-4.9,7.7-5.9,11.8-3.6C146,223.2,147,227.9,144.4,232.4z
		 M132.7,225.9c-1.9,3.2-1.4,6.7,1.2,8.2c2.5,1.5,5.8,0.2,7.7-3.1c1.4-2.5,2-6.4-1.1-8.2C137.4,220.9,134.3,223.1,132.7,225.9z"/>
	<path d="M152.8,227.6l-1.9,9.9c-0.3,1.6-0.6,3.1-1,4.4l0.1,0.1c1-1,2.2-2,3.4-3l7.6-6.6l2.8,1.6l-14.2,11.3l-2.5-1.5l2.9-17.9
		L152.8,227.6z"/>
	<path d="M163,243.9c-2,3.6-0.6,6.5,2.1,8c1.9,1.1,3.3,1.4,4.5,1.6l-0.6,2.2c-1.2-0.1-3.1-0.6-5.4-1.9c-4.5-2.6-5.5-7.1-2.9-11.6
		c2.6-4.4,7.2-6.4,11.4-3.9c4.8,2.8,3.6,7.7,2.1,10.4c-0.3,0.5-0.6,0.9-0.8,1.2L163,243.9z M171.9,246.6c1-1.7,1.8-4.7-1.2-6.5
		c-2.7-1.6-5.3,0.2-6.6,2L171.9,246.6z"/>
	<path d="M178.6,248.6c1-1.7,1.8-3.2,2.5-4.6l2.3,1.3l-1.6,2.9l0.1,0.1c1.8-1.6,4.1-1.9,5.9-0.9c0.3,0.2,0.5,0.3,0.7,0.5l-1.5,2.5
		c-0.2-0.2-0.5-0.4-0.9-0.6c-1.9-1.1-4-0.4-5.6,1.4c-0.3,0.3-0.6,0.7-0.8,1.2l-4.5,7.8l-2.6-1.5L178.6,248.6z"/>
	<path d="M189,253.8c0.9-1.5,1.6-2.8,2.2-4l2.4,1.4l-1.2,2.5l0.1,0c1.5-1,4-1.4,6.4,0c2,1.2,4.5,4.2,1.6,9.2l-5.1,8.8l-2.7-1.5
		l4.9-8.5c1.4-2.4,1.6-4.8-0.9-6.3c-1.8-1-3.8-0.6-5.2,0.7c-0.3,0.3-0.6,0.7-0.9,1.1l-5.1,8.8l-2.7-1.5L189,253.8z"/>
	<path d="M205.8,263.5c0.9-1.5,1.6-2.8,2.2-4l2.3,1.3l-1.2,2.4l0.1,0.1c1.6-0.9,3.7-1.4,6.2,0c2,1.2,2.8,3.2,2.5,5.3l0.1,0
		c0.9-0.6,1.9-0.9,2.7-1c1.3-0.2,2.4,0,3.8,0.8c1.9,1.1,4.1,4.1,1.1,9.1l-5,8.6l-2.6-1.5l4.8-8.3c1.6-2.8,1.6-5.1-0.6-6.4
		c-1.5-0.9-3.3-0.4-4.6,0.6c-0.3,0.3-0.7,0.7-1,1.2l-5.2,9.1l-2.6-1.5l5.1-8.8c1.3-2.3,1.3-4.6-0.7-5.8c-1.7-1-3.6-0.3-4.8,0.8
		c-0.4,0.3-0.7,0.7-1,1.2l-5.1,8.9l-2.6-1.5L205.8,263.5z"/>
	<path d="M230.3,282.8c-2,3.6-0.6,6.5,2.1,8c1.9,1.1,3.3,1.4,4.5,1.6l-0.6,2.2c-1.2-0.1-3.1-0.6-5.4-1.9c-4.5-2.6-5.5-7.1-2.9-11.6
		c2.6-4.4,7.2-6.4,11.4-3.9c4.8,2.8,3.6,7.7,2.1,10.4c-0.3,0.5-0.6,0.9-0.8,1.2L230.3,282.8z M239.2,285.4c1-1.7,1.8-4.7-1.2-6.5
		c-2.7-1.6-5.3,0.2-6.6,2L239.2,285.4z"/>
	<path d="M246.2,286.9c0.9-1.5,1.6-2.8,2.2-4l2.4,1.4l-1.2,2.5l0.1,0c1.5-1,4-1.4,6.4,0c2,1.2,4.5,4.2,1.6,9.2l-5.1,8.8l-2.7-1.5
		l4.9-8.5c1.4-2.4,1.6-4.8-0.9-6.3c-1.8-1-3.8-0.6-5.2,0.7c-0.3,0.3-0.6,0.7-0.9,1.1l-5.1,8.8l-2.7-1.5L246.2,286.9z"/>
	<path d="M270.9,290.2l-2.4,4.2l3.8,2.2l-1.2,2l-3.8-2.2l-4.6,7.9c-1,1.8-1.1,3.1,0.4,4c0.7,0.4,1.3,0.6,1.7,0.7l-1,2.1
		c-0.6-0.1-1.5-0.4-2.6-1c-1.2-0.7-2-1.7-2.2-2.8c-0.3-1.2,0.2-2.7,1.2-4.4l4.6-8l-2.3-1.3l1.2-2l2.3,1.3l2-3.5L270.9,290.2z"/>
</g>
<g>
	<path d="M107.5,337.7l1.7,9.7l11.2-2l-1.7-9.7l3-0.5l4.1,23.2l-3,0.5l-1.9-10.9l-11.2,2l1.9,10.9l-3,0.5l-4.1-23.2L107.5,337.7z"/>
	<path d="M130.9,335.5c0.2,1-0.4,2-1.6,2.2c-1.1,0.2-2-0.5-2.2-1.5c-0.2-1.1,0.5-2,1.6-2.2C129.9,333.7,130.7,334.4,130.9,335.5z
		 M131.3,357.4l-2.9-16.7l3-0.5l2.9,16.7L131.3,357.4z"/>
	<path d="M138.4,353c1,0.4,2.7,0.8,4.2,0.5c2.2-0.4,3-1.7,2.8-3.1c-0.3-1.4-1.3-2.1-3.6-2.5c-3.2-0.5-4.9-1.9-5.2-3.9
		c-0.5-2.7,1.3-5.3,4.9-5.9c1.7-0.3,3.3-0.1,4.3,0.3l-0.4,2.3c-0.7-0.3-2-0.6-3.6-0.4c-1.8,0.3-2.6,1.5-2.4,2.8
		c0.2,1.4,1.4,1.8,3.7,2.3c3.1,0.6,4.8,1.8,5.3,4.3c0.5,2.9-1.4,5.4-5.4,6.1c-1.8,0.3-3.6,0.2-4.9-0.3L138.4,353z"/>
	<path d="M152.9,331.5l0.8,4.8l4.3-0.8l0.4,2.3l-4.3,0.8l1.6,9c0.4,2.1,1.2,3.1,2.8,2.8c0.8-0.1,1.4-0.3,1.7-0.5l0.5,2.3
		c-0.5,0.3-1.4,0.7-2.6,0.9c-1.4,0.2-2.6,0-3.5-0.7c-1-0.7-1.6-2.2-1.9-4.1l-1.6-9.1l-2.6,0.5l-0.4-2.3l2.6-0.5l-0.7-4L152.9,331.5z
		"/>
	<path d="M177.8,340.5c1.1,6.2-2.7,9.6-6.7,10.3c-4.5,0.8-8.6-1.9-9.5-7.2c-1-5.6,2.1-9.5,6.7-10.3
		C173.1,332.5,176.9,335.4,177.8,340.5z M164.6,343c0.6,3.7,3.2,6,6.2,5.5c2.9-0.5,4.6-3.6,3.9-7.4c-0.5-2.8-2.5-6.2-6.1-5.5
		C165,336.2,164.1,339.8,164.6,343z"/>
	<path d="M181.1,336.8c-0.3-2-0.7-3.6-1.1-5.2l2.7-0.5l0.7,3.3l0.1,0c0.4-2.4,1.9-4.1,4-4.5c0.3-0.1,0.6-0.1,0.9,0l0.5,2.9
		c-0.3,0-0.6,0-1.1,0.1c-2.1,0.4-3.4,2.3-3.4,4.6c0,0.4,0,0.9,0.1,1.4l1.6,8.9l-3,0.5L181.1,336.8z"/>
	<path d="M194.2,324.3c0.2,1-0.4,2-1.6,2.2c-1.1,0.2-2-0.5-2.2-1.5c-0.2-1.1,0.5-2,1.6-2.2C193.1,322.5,194,323.2,194.2,324.3z
		 M194.6,346.3l-2.9-16.7l3-0.5l2.9,16.7L194.6,346.3z"/>
	<path d="M214.4,342.1c-0.7,0.6-2.4,1.4-4.6,1.8c-5,0.9-8.9-1.9-9.8-7c-0.9-5.1,2-9.5,7.4-10.4c1.8-0.3,3.5-0.1,4.4,0.1l-0.3,2.5
		c-0.8-0.3-2-0.5-3.7-0.2c-3.8,0.7-5.4,3.9-4.8,7.3c0.7,3.9,3.6,5.8,6.9,5.2c1.7-0.3,2.8-1,3.6-1.5L214.4,342.1z"/>
	<path d="M227.3,340.5l-0.6-2.1l-0.1,0c-0.7,1.5-2.3,3-4.7,3.4c-3.4,0.6-5.5-1.5-5.9-3.9c-0.7-4,2.5-6.9,8.9-8l-0.1-0.3
		c-0.2-1.4-1.1-3.8-4.5-3.2c-1.6,0.3-3.1,1-4.1,2l-1-1.9c1.2-1.1,3.1-2.1,5.2-2.4c5.1-0.9,7,2.4,7.5,5.7l1.1,6.2
		c0.3,1.4,0.6,2.8,1,4L227.3,340.5z M225.4,332.1c-3.3,0.5-7,1.8-6.4,5c0.3,2,1.8,2.7,3.4,2.4c2.2-0.4,3.3-2,3.5-3.5
		c0-0.3,0.1-0.7,0-1L225.4,332.1z"/>
	<path d="M230.4,314.7l3-0.5l4.3,24.5l-3,0.5L230.4,314.7z"/>
	<path d="M150.8,373.2l-9,1.6l1.5,8.4l10.1-1.8l0.4,2.5l-13.1,2.3l-4.1-23.2l12.5-2.2l0.4,2.5L140,365l1.3,7.3l9-1.6L150.8,373.2z"
		/>
	<path d="M155.5,366.4l4.9,8.8c0.8,1.4,1.5,2.7,2.1,4l0.1,0c0.1-1.4,0.4-2.9,0.7-4.5l1.6-9.9l3.2-0.6l-3.6,17.8l-2.9,0.5l-9.3-15.6
		L155.5,366.4z"/>
	<path d="M173.8,372.4c0.8,4.1,3.7,5.3,6.7,4.8c2.2-0.4,3.4-1,4.5-1.7l0.9,2.1c-1,0.7-2.7,1.5-5.4,2c-5.1,0.9-8.8-1.9-9.7-7
		c-0.9-5,1.4-9.5,6.2-10.4c5.4-1,7.7,3.6,8.3,6.6c0.1,0.6,0.1,1.1,0.1,1.4L173.8,372.4z M182.3,368.6c-0.3-1.9-1.7-4.8-5.1-4.2
		c-3.1,0.5-3.9,3.6-3.8,5.7L182.3,368.6z"/>
	<path d="M188.6,365.2c-0.3-1.7-0.6-3.1-0.9-4.5l2.7-0.5l0.7,2.7l0.1,0c0.5-1.7,2.2-3.6,5-4.1c2.3-0.4,6.1,0.3,7.1,6.1l1.8,10
		l-3,0.5l-1.7-9.6c-0.5-2.7-1.9-4.8-4.7-4.2c-2,0.4-3.3,2-3.5,3.8c-0.1,0.4,0,0.9,0,1.5l1.8,10l-3,0.5L188.6,365.2z"/>
	<path d="M209.6,351.9l0.8,4.8l4.3-0.8l0.4,2.3l-4.3,0.8l1.6,9c0.4,2.1,1.2,3.1,2.8,2.8c0.8-0.1,1.4-0.3,1.7-0.5l0.5,2.3
		c-0.5,0.3-1.4,0.7-2.6,0.9c-1.4,0.2-2.6,0-3.5-0.7c-1-0.7-1.6-2.2-1.9-4.1l-1.6-9.1l-2.6,0.5l-0.4-2.3l2.6-0.5l-0.7-4L209.6,351.9z
		"/>
</g>
<g>
	<path d="M169.3,469.1c0.6-1.2,1.7-2.7,2.9-4.1c1.8-2.1,3.3-3.2,5-3.4c1.3-0.2,2.8,0.2,4,1.3c2,1.7,2.3,4.1,1.5,6.2l0.1,0.1
		c1.4-0.8,3.1-0.6,5,0.3c2.6,1.3,4.4,2.2,5.3,2.4l-1.7,2.1c-0.6-0.1-2.3-0.9-4.6-2.1c-2.5-1.3-4-1.2-5.6,0.6l-1.6,1.9l6.7,5.6
		l-1.7,2L169.3,469.1z M178,473l1.7-2c1.8-2.1,1.8-4.5,0-6c-2-1.7-4.1-1-5.9,1.1c-0.8,1-1.3,1.7-1.5,2.1L178,473z"/>
	<path d="M190.7,464.1c2.8,2.2,5.4,1.4,7.1-0.6c1.2-1.4,1.7-2.5,2-3.6l1.7,0.9c-0.3,1-0.9,2.5-2.4,4.3c-2.9,3.4-6.8,3.6-10.2,0.8
		c-3.4-2.8-4.3-7-1.6-10.2c3-3.6,7.1-1.9,9.1-0.2c0.4,0.3,0.7,0.7,0.9,0.9L190.7,464.1z M194.2,456.9c-1.3-1.1-3.7-2.2-5.6,0
		c-1.7,2-0.6,4.5,0.7,5.9L194.2,456.9z"/>
	<path d="M188.3,444.4l1.7-2l16.3,13.7l-1.7,2L188.3,444.4z"/>
	<path d="M196.8,438.4c0.7,0.6,0.8,1.5,0.2,2.3c-0.6,0.7-1.6,0.8-2.3,0.2c-0.7-0.6-0.8-1.6-0.2-2.3
		C195.1,437.8,196.1,437.8,196.8,438.4z M209.2,452.6l-11.1-9.3l1.7-2l11.1,9.3L209.2,452.6z"/>
	<path d="M210.6,428.3c0.8,0.7,1.6,1.5,3,2.7l6.5,5.4c2.6,2.1,3.7,4,3.7,5.8c0.1,1.9-0.9,3.8-2.1,5.2c-1.1,1.3-2.7,2.5-4,2.9
		l-1.1-1.8c1.1-0.4,2.5-1.2,3.6-2.5c1.7-2.1,1.9-4.5-0.9-6.8l-1.2-1l0,0c0.5,1.5,0.3,3.4-1.1,5.1c-2.3,2.8-6.3,2.8-9.4,0.2
		c-3.8-3.2-3.8-7.4-1.7-10c1.6-1.9,3.5-2.1,4.8-1.8l0,0l-1.6-1.5L210.6,428.3z M213.2,434.1c-0.3-0.3-0.7-0.5-1-0.7
		c-1.5-0.6-3.3-0.4-4.5,1c-1.6,1.9-1.1,4.7,1.4,6.8c2.2,1.8,4.9,2.3,6.8,0.1c1-1.2,1.2-3,0.3-4.5c-0.2-0.4-0.6-0.8-0.9-1.1
		L213.2,434.1z"/>
	<path d="M212,420.3c0.7,0.6,0.8,1.5,0.2,2.3c-0.6,0.7-1.6,0.8-2.3,0.2c-0.7-0.6-0.8-1.6-0.2-2.3C210.3,419.8,211.3,419.7,212,420.3
		z M224.3,434.5l-11.1-9.3l1.7-2l11.1,9.3L224.3,434.5z"/>
	<path d="M231.6,414.4c4.1,3.5,3.5,7.8,1.3,10.5c-2.5,3-6.7,3.5-10.2,0.5c-3.7-3.1-3.9-7.4-1.3-10.5
		C224.1,411.7,228.2,411.5,231.6,414.4z M224.4,423.3c2.4,2,5.5,2.2,7.1,0.2c1.6-1.9,1-4.9-1.5-7c-1.9-1.6-5.1-2.6-7.1-0.3
		C220.9,418.6,222.2,421.5,224.4,423.3z"/>
	<path d="M231.3,409.7c-1.1-1-2.1-1.7-3.1-2.4l1.5-1.8l1.9,1.4l0,0c-0.6-1.4-0.5-3.6,1-5.4c1.3-1.5,4.2-3.2,8,0l6.6,5.6l-1.7,2
		l-6.4-5.4c-1.8-1.5-3.8-2.1-5.4-0.2c-1.1,1.3-1,3.2-0.2,4.4c0.2,0.3,0.5,0.6,0.8,0.9l6.7,5.6l-1.7,2L231.3,409.7z"/>
	<path d="M262.4,389.2c-0.8,0.1-1.6,0.1-2.7,0.2c0.1,2.4-0.6,4.3-2,6c-2.5,3-6,3.1-8.3,1.1c-2.1-1.8-2.5-4.3-2-6.8l-0.1-0.1
		c-1.7,0-3.2-0.5-4.3-1.4c-1.9-1.6-2.7-4.6-0.5-7.1c1.6-1.9,4.2-2.3,6.2-0.7c1.6,1.4,2.1,3.4,1.3,6.9l0.1,0.1c2.6,0,5.6-0.1,7.5-0.1
		c-0.5-1.6-1.6-3.4-3.3-5.3l1.5-1.8c2.1,2.5,3.5,4.7,3.9,7c1.6-0.1,3.1-0.2,4.9-0.3L262.4,389.2z M244.3,386.1
		c1.1,0.9,2.4,1.1,3.8,1.2c0.4-2.3,0.4-4-0.9-5.1c-0.9-0.8-2.4-1.1-3.5,0.1C242.6,383.6,243.1,385.1,244.3,386.1z M257.7,389.4
		c-1.8,0.1-5.1,0.2-8.5,0.3c-0.2,1.3-0.2,3.3,1.5,4.6c1.8,1.5,4.2,1.3,5.8-0.5C257.6,392.4,257.9,390.8,257.7,389.4z"/>
	<path d="M202.1,502.7c1.3-0.4,2.9-1.4,4-2.7c1.7-2,1.6-4.1,0.1-5.5c-1.4-1.2-3-1.1-5.5,0.3c-3,1.8-5.6,2.2-7.8,0.4
		c-2.4-2-2.5-5.5,0-8.5c1.3-1.6,2.7-2.4,3.6-2.8l1.2,1.9c-0.7,0.3-2,0.9-3.2,2.3c-1.8,2.1-1.2,4-0.1,4.9c1.4,1.2,3,0.9,5.6-0.6
		c3.2-1.8,5.6-2,7.9-0.1c2.4,2,3,5.5-0.1,9.2c-1.3,1.5-3.1,2.8-4.3,3.1L202.1,502.7z"/>
	<path d="M206.7,487c-1.4-1.2-2.6-2.1-3.7-3l1.5-1.8l2,1.5l0,0c-0.7-2-0.4-4,1.2-5.8c2.3-2.7,6.2-2.8,9.6,0c4,3.4,3.9,7.5,1.7,10.1
		c-1.2,1.5-3,2.2-4.6,2l0,0l6,5.1l-1.7,2L206.7,487z M211.4,487.4c0.3,0.3,0.6,0.4,0.9,0.6c1.7,0.8,3.7,0.4,4.9-1
		c1.8-2.1,1.1-4.8-1.5-7c-2.2-1.9-5.1-2.3-6.9-0.2c-1.2,1.4-1.2,3.5-0.1,5.2c0.2,0.3,0.4,0.6,0.7,0.8L211.4,487.4z"/>
	<path d="M212.9,466c0.7,0.6,0.8,1.5,0.2,2.3c-0.6,0.7-1.6,0.8-2.3,0.2c-0.7-0.6-0.8-1.6-0.2-2.3C211.2,465.4,212.1,465.4,212.9,466
		z M225.2,480.2l-11.1-9.3l1.7-2l11.1,9.3L225.2,480.2z"/>
	<path d="M222.1,468.4c-1.3-1.1-2.5-2-3.5-2.8l1.5-1.8l2.2,1.8l0.1-0.1c-1.1-1.8-1-3.8,0.1-5.1c0.2-0.2,0.3-0.4,0.6-0.5l1.9,1.6
		c-0.2,0.2-0.4,0.4-0.6,0.6c-1.2,1.4-1,3.3,0.3,4.9c0.2,0.3,0.5,0.6,0.9,0.9l5.9,5l-1.7,2L222.1,468.4z"/>
	<path d="M223.8,453c0.7,0.6,0.8,1.5,0.2,2.3c-0.6,0.7-1.6,0.8-2.3,0.2c-0.7-0.6-0.8-1.6-0.2-2.3C222.1,452.4,223,452.4,223.8,453z
		 M236.1,467.2l-11.1-9.3l1.7-2l11.1,9.3L236.1,467.2z"/>
	<path d="M228.3,447.4l3.2,2.7l2.4-2.9l1.5,1.3l-2.4,2.9l6,5c1.4,1.2,2.5,1.4,3.4,0.3c0.4-0.5,0.7-1,0.8-1.3l1.6,1.2
		c-0.2,0.5-0.6,1.2-1.2,2c-0.8,0.9-1.7,1.5-2.7,1.5c-1.1,0.1-2.2-0.5-3.6-1.6l-6.1-5.1L230,455l-1.5-1.3l1.4-1.7l-2.7-2.2
		L228.3,447.4z"/>
	<path d="M251.8,442.3c1.1,1,2.2,1.8,3.1,2.5l-1.5,1.8l-1.9-1.4l0,0c0.5,1.3,0.6,3.4-1,5.4c-1.5,1.7-4.2,3-8.1-0.2l-6.5-5.5l1.7-2
		l6.2,5.2c2.1,1.8,4.1,2.3,5.6,0.5c1.1-1.4,1-3.1,0.4-4.2c-0.2-0.4-0.5-0.7-0.9-1.1l-6.8-5.7l1.7-2L251.8,442.3z"/>
	<path d="M262.8,435.4l-1.5-1l-0.1,0.1c0.4,1.4,0.1,3.2-1.2,4.8c-1.9,2.3-4.4,2.1-6,0.7c-2.7-2.3-2.2-5.9,1.5-10.2l-0.2-0.2
		c-0.9-0.8-2.8-1.9-4.7,0.4c-0.9,1-1.5,2.4-1.6,3.6l-1.7-0.7c0.2-1.4,0.9-3.1,2.1-4.5c2.9-3.4,5.9-2.3,8.1-0.4l4.2,3.5
		c1,0.8,1.9,1.6,2.8,2.1L262.8,435.4z M256.9,430.9c-1.9,2.2-3.6,5-1.4,6.8c1.3,1.1,2.7,0.7,3.5-0.3c1.2-1.4,1.1-3.1,0.4-4.2
		c-0.1-0.2-0.3-0.5-0.5-0.7L256.9,430.9z"/>
	<path d="M250.6,416.8l1.7-2l16.3,13.7l-1.7,2L250.6,416.8z"/>
	<path d="M259.1,410.8c0.7,0.6,0.8,1.5,0.2,2.3c-0.6,0.7-1.6,0.8-2.3,0.2c-0.7-0.6-0.8-1.6-0.2-2.3
		C257.4,410.3,258.4,410.2,259.1,410.8z M271.5,425l-11.1-9.3l1.7-2l11.1,9.3L271.5,425z"/>
	<path d="M263.7,405.2l3.2,2.7l2.4-2.9l1.5,1.3l-2.4,2.9l6,5c1.4,1.2,2.5,1.4,3.4,0.3c0.4-0.5,0.7-1,0.8-1.3l1.6,1.2
		c-0.2,0.5-0.6,1.2-1.2,2c-0.8,0.9-1.7,1.4-2.7,1.5c-1.1,0.1-2.2-0.5-3.6-1.6l-6.1-5.1l-1.4,1.7l-1.5-1.3l1.4-1.7l-2.7-2.2
		L263.7,405.2z"/>
	<path d="M272,401.8l8.6,3.1c0.9,0.4,2.1,0.8,2.9,1.2l0,0c-0.5-0.8-1.2-1.7-1.7-2.7l-4.7-7.7l1.8-2.1l5.4,9.7
		c2.6,4.6,3.7,7.3,3.8,9.7c0,1.7-0.4,3-0.8,3.6l-2.1-0.9c0.3-0.6,0.5-1.6,0.5-2.6c0-0.9-0.2-2.3-0.8-3.6c-0.1-0.3-0.2-0.5-0.3-0.6
		c-0.1-0.1-0.3-0.2-0.6-0.3l-13.7-4.5L272,401.8z"/>
</g>
<g>
	<path d="M316.1,397.4c-0.9,1.5-1.7,3.8-1.7,6.1c0,3.5,1.8,5.5,4.5,5.5c2.5,0,3.9-1.4,5.2-5c1.5-4.3,3.8-7,7.5-7
		c4.1,0,7.2,3.4,7.2,8.5c0,2.7-0.6,4.7-1.3,5.8l-2.8-0.9c0.5-0.9,1.3-2.6,1.3-5c0-3.6-2.2-5-3.9-5c-2.5,0-3.7,1.6-5.1,5.2
		c-1.7,4.5-3.9,6.7-7.7,6.7c-4.1,0-7.6-3-7.6-9.2c0-2.5,0.7-5.3,1.7-6.7L316.1,397.4z"/>
	<path d="M321.6,434.4c-7,0-10-4.8-10-9.4c0-5.1,3.8-9.1,9.7-9.1c6.3,0,10,4.1,10,9.4C331.3,430.7,327.4,434.4,321.6,434.4z
		 M321.4,419.4c-4.1,0-7.3,2.4-7.3,5.7c0,3.3,3.1,5.7,7.3,5.7c3.2,0,7.3-1.6,7.3-5.7S325,419.4,321.4,419.4z"/>
	<path d="M312.7,452.2c-0.5-0.9-1.1-2.9-1.1-5.4c0-5.7,3.9-9.4,9.7-9.4c5.8,0,10,4,10,10.2c0,2-0.5,3.8-1,4.8l-2.7-0.8
		c0.5-0.8,0.9-2.1,0.9-4c0-4.3-3.2-6.7-7.2-6.7c-4.4,0-7.1,2.8-7.1,6.6c0,2,0.5,3.2,0.9,4.2L312.7,452.2z"/>
	<path d="M312,456.2h18.9v3.4H312V456.2z M336.2,460.1c-1.2,0-2.1-0.8-2.1-2.2c0-1.2,0.9-2.1,2.1-2.1c1.2,0,2.1,0.9,2.1,2.1
		C338.4,459.2,337.4,460.1,336.2,460.1z"/>
	<path d="M312,475.8l2.4-0.3v-0.1c-1.5-1.1-2.8-3.1-2.8-5.8c0-3.8,2.7-5.8,5.4-5.8c4.6,0,7.1,4.1,7,11.4h0.4c1.6,0,4.4-0.4,4.4-4.3
		c0-1.8-0.5-3.6-1.4-4.9l2.3-0.8c1,1.6,1.7,3.8,1.7,6.2c0,5.8-3.9,7.2-7.7,7.2h-7.1c-1.6,0-3.2,0.1-4.5,0.3V475.8z M321.7,475.3
		c0.1-3.8-0.6-8-4.3-8c-2.2,0-3.3,1.5-3.3,3.2c0,2.5,1.6,4,3.2,4.6c0.4,0.1,0.7,0.2,1.1,0.2H321.7z"/>
	<path d="M339.7,484.2v3.4H312v-3.4H339.7z"/>
	<path d="M338.3,501.8v3.4h-23.5v11.3H312v-14.7H338.3z"/>
	<path d="M312,520.2h18.9v3.4H312V520.2z M336.2,524c-1.2,0-2.1-0.8-2.1-2.2c0-1.2,0.9-2.1,2.1-2.1c1.2,0,2.1,0.9,2.1,2.1
		C338.4,523.2,337.4,524,336.2,524z"/>
	<path d="M312,529.6h16.3V527h2.6v2.7h0.9c2.7,0,5.1,0.6,6.6,2.2c1.3,1.3,1.8,3,1.8,4.6c0,1.2-0.3,2.3-0.5,2.9l-2.7-0.5
		c0.2-0.5,0.4-1.2,0.4-2.2c0-2.9-2.6-3.7-5.5-3.7h-1v4.6h-2.6V533H312V529.6z"/>
	<path d="M320.8,542.1c-4.7,0.1-6.6,3-6.6,6.5c0,2.5,0.4,3.9,1,5.2l-2.5,0.6c-0.5-1.2-1.2-3.3-1.2-6.3c0-5.8,3.8-9.3,9.5-9.3
		c5.7,0,10.2,3.4,10.2,8.9c0,6.2-5.4,7.8-8.9,7.8c-0.7,0-1.3-0.1-1.6-0.1V542.1z M323.3,552.2c2.2,0,5.6-0.9,5.6-4.8
		c0-3.5-3.2-5-5.6-5.3V552.2z"/>
</g>
<polygon class="st3" points="325,160 325,325 431.1,198.6 325,325 487.5,296.3 325,325 467.9,407.5 325,325 381.4,480 325,325 
	268.6,480 325,325 182.1,407.5 325,325 162.5,296.3 325,325 218.9,198.6 325,325 "/>
</svg>
